<svg xmlns="http://www.w3.org/2000/svg" width="1048" height="191" fill="none" viewBox="0 0 1048 191"><path fill="#000" d="M0 0h1048v191H0V0Z"/><path fill="#13B5B8" fill-opacity=".5" d="M12 82h236v2H12v-2Zm0-10h236v2H12v-2Zm0-10h236v2H12v-2Zm0-10h236v2H12v-2Zm0-10h236v2H12v-2Zm0-10h236v2H12v-2Zm0-10h236v2H12v-2Zm0-10h236v2H12v-2Zm262 70h236v2H274v-2Zm0-10h236v2H274v-2Zm0-10h236v2H274v-2Zm0-10h236v2H274v-2Zm0-10h236v2H274v-2Zm0-10h236v2H274v-2Zm0-10h236v2H274v-2Zm0-10h236v2H274v-2Zm262 70h236v2H536v-2Zm0-10h236v2H536v-2Zm0-10h236v2H536v-2Zm0-10h236v2H536v-2Zm0-10h236v2H536v-2Zm0-10h236v2H536v-2Zm0-10h236v2H536v-2Zm0-10h236v2H536v-2Zm262 70h236v2H798v-2Zm0-10h236v2H798v-2Zm0-10h236v2H798v-2Zm0-10h236v2H798v-2Zm0-10h236v2H798v-2Zm0-10h236v2H798v-2Zm0-10h236v2H798v-2Zm0-10h236v2H798v-2Z"/><path fill="#13B5B8" fill-opacity=".6" d="M276 154h23.627v16H276v-16Zm0-24h23.627v16H276v-16Zm31.503 0h23.627v16h-23.627v-16Zm0-24h23.627v16h-23.627v-16Zm-21.658 40h3.937v8h-3.937v-8Zm31.502-24h3.938v8h-3.938v-8Zm-17.72 14h7.876v4h-7.876v-4Zm21.658-12h13.782v2h-13.782v-2Zm0-22h13.782v2h-13.782v-2Zm-1.969 0h1.969v4h-1.969v-4Zm13.782 2h1.969v20h-1.969v-20Z"/><path fill="#000" d="M291.498 143v-1.319h-4.635l2.215-2.366c.292-.309.561-.61.807-.902.25-.292.467-.581.649-.868.178-.287.317-.577.417-.868.105-.296.157-.602.157-.916 0-.42-.068-.802-.205-1.149-.136-.351-.335-.651-.594-.902-.265-.251-.59-.447-.978-.588-.383-.141-.818-.212-1.306-.212-.519 0-.991.084-1.415.253-.419.169-.774.397-1.066.684-.296.287-.524.624-.684 1.011-.159.383-.239.791-.239 1.224h1.641c0-.287.036-.542.109-.766.073-.227.182-.421.328-.581.142-.15.319-.266.534-.348.214-.082.467-.123.758-.123.228 0 .433.038.616.116.186.077.346.184.478.321s.232.301.301.492c.068.192.102.404.102.636 0 .173-.025.346-.075.52-.045.168-.123.351-.232.547-.114.195-.262.412-.445.649-.182.232-.407.497-.676.793l-3.241 3.527V143h6.679Zm-2.898 24v-9.953h-.103l-4.095 1.517v1.443l2.55-.937V167h1.648Zm28.809-29.715v1.285h.977c.283 0 .538.034.766.103.232.064.431.162.595.294.164.137.289.307.376.512.086.206.13.452.13.739 0 .255-.039.483-.117.683-.073.196-.18.36-.321.493-.146.141-.326.248-.54.321-.21.068-.447.102-.711.102-.246 0-.472-.036-.677-.109-.2-.073-.373-.175-.519-.308-.151-.127-.267-.282-.349-.464-.077-.187-.116-.39-.116-.609h-1.634c0 .465.089.873.267 1.224.182.346.424.638.724.875.301.237.65.414 1.046.533.397.118.809.178 1.238.178.473 0 .913-.064 1.319-.192.41-.132.766-.323 1.066-.574.297-.246.529-.549.698-.909.173-.365.259-.779.259-1.244 0-.251-.029-.492-.089-.725-.059-.237-.155-.458-.287-.663-.132-.2-.303-.38-.512-.54-.205-.164-.456-.296-.752-.396.25-.114.469-.253.656-.417.187-.165.342-.34.465-.527.123-.191.214-.389.273-.595.064-.205.096-.41.096-.615 0-.465-.078-.872-.232-1.223-.155-.351-.374-.648-.657-.889-.278-.237-.615-.415-1.011-.533-.392-.123-.823-.185-1.292-.185-.461 0-.885.069-1.272.205-.383.137-.715.326-.998.568-.283.246-.504.535-.663.868-.16.332-.239.697-.239 1.094h1.633c0-.215.039-.408.117-.582.082-.173.193-.321.335-.444.136-.123.298-.216.485-.28.191-.068.399-.103.622-.103.251 0 .472.035.663.103.196.068.358.164.485.287.128.132.224.292.288.478.068.187.102.399.102.636 0 .219-.036.424-.109.615-.069.187-.169.345-.301.472-.141.146-.321.26-.54.342-.219.077-.474.116-.766.116h-.977Zm3.643-21.833v-6.405h-1.681l-4.3 6.726.041 1.005h4.307V119h1.633v-2.222h1.251v-1.326h-1.251Zm-4.313 0 2.488-3.862.192-.356v4.218h-2.68Z"/><path fill="#13B5B8" fill-opacity=".25" d="M390.197 154h23.627v16h-23.627v-16Zm-31.503-48h23.627v16h-23.627v-16Zm31.503 24h23.627v16h-23.627v-16Zm0-24h23.627v16h-23.627v-16Zm9.845 40h3.937v8h-3.937v-8Zm0-24h3.937v8h-3.937v-8Zm3.937 2h13.783v2h-13.783v-2Zm0-22h13.783v2h-13.783v-2Zm-1.969 0h1.969v4h-1.969v-4Zm13.783 2h1.969v20h-1.969v-20Z"/><path fill="#000" d="M404.711 143v-1.319h-4.635l2.215-2.366c.291-.309.56-.61.806-.902.251-.292.467-.581.65-.868.177-.287.316-.577.417-.868.104-.296.157-.602.157-.916 0-.42-.068-.802-.205-1.149-.137-.351-.335-.651-.595-.902-.264-.251-.59-.447-.977-.588-.383-.141-.818-.212-1.306-.212-.52 0-.991.084-1.415.253-.419.169-.775.397-1.067.684-.296.287-.524.624-.683 1.011-.16.383-.239.791-.239 1.224h1.64c0-.287.037-.542.11-.766.072-.227.182-.421.328-.581.141-.15.319-.266.533-.348.214-.082.467-.123.759-.123.228 0 .433.038.615.116.187.077.346.184.478.321.133.137.233.301.301.492.069.192.103.404.103.636 0 .173-.025.346-.075.52-.046.168-.123.351-.233.547-.114.195-.262.412-.444.649-.182.232-.408.497-.677.793l-3.24 3.527V143h6.679Zm-1.915 24v-9.953h-.102l-4.095 1.517v1.443l2.55-.937V167h1.647ZM368.6 113.285v1.285h.978c.283 0 .538.034.766.103.232.064.43.162.594.294.164.137.29.307.376.512.087.206.13.452.13.739 0 .255-.038.483-.116.683-.073.196-.18.36-.321.493-.146.141-.326.248-.54.321-.21.068-.447.102-.711.102-.246 0-.472-.036-.677-.109-.201-.073-.374-.175-.52-.308-.15-.127-.266-.282-.348-.464-.078-.187-.116-.39-.116-.609h-1.634c0 .465.089.873.266 1.224.183.346.424.638.725.875s.649.414 1.046.533c.396.118.809.178 1.237.178.474 0 .914-.064 1.32-.192.41-.132.765-.323 1.066-.574.296-.246.529-.549.697-.909.173-.365.26-.779.26-1.244 0-.251-.03-.492-.089-.725-.059-.237-.155-.458-.287-.663-.132-.2-.303-.38-.513-.54-.205-.164-.455-.296-.752-.396.251-.114.47-.253.657-.417.187-.165.341-.34.465-.527.123-.191.214-.389.273-.595.064-.205.096-.41.096-.615 0-.465-.078-.872-.233-1.223-.155-.351-.373-.648-.656-.889-.278-.237-.615-.415-1.012-.533-.392-.123-.822-.185-1.292-.185-.46 0-.884.069-1.271.205-.383.137-.716.326-.998.568-.283.246-.504.535-.663.868-.16.332-.24.697-.24 1.094h1.634c0-.215.039-.408.116-.582.082-.173.194-.321.335-.444.137-.123.299-.216.486-.28.191-.068.398-.103.622-.103.25 0 .471.035.663.103.196.068.358.164.485.287.128.132.224.292.287.478.069.187.103.399.103.636 0 .219-.037.424-.11.615-.068.187-.168.345-.3.472-.142.146-.322.26-.54.342-.219.077-.474.116-.766.116h-.978Zm35.147 2.167v-6.405h-1.682l-4.3 6.726.041 1.005h4.307V119h1.634v-2.222h1.251v-1.326h-1.251Zm-4.314 0 2.488-3.862.192-.356v4.218h-2.68Z"/><path fill="#13B5B8" fill-opacity=".25" d="M441.389 154h23.626v16h-23.626v-16Zm0-48h23.626v16h-23.626v-16Zm0 24h23.626v16h-23.626v-16Zm9.844 16h3.938v8h-3.938v-8Zm0-24h3.938v8h-3.938v-8Zm21.658 8h23.627v16h-23.627v-16Zm11.814 16h1.968v4h-1.968v-4Z"/><path fill="#13B5B8" fill-opacity=".25" d="M486.674 148h13.782v2h-13.783l.001-2Zm0-22h13.782v2h-13.782v-2Zm-1.969 0h1.969l-.001 4h-1.968v-4Zm13.782 2h1.969v20h-1.969v-20Z"/><path fill="#000" d="M455.902 143v-1.319h-4.635l2.215-2.366c.292-.309.561-.61.807-.902.251-.292.467-.581.649-.868.178-.287.317-.577.417-.868.105-.296.157-.602.157-.916 0-.42-.068-.802-.205-1.149-.136-.351-.335-.651-.594-.902-.265-.251-.59-.447-.978-.588-.383-.141-.818-.212-1.306-.212-.519 0-.991.084-1.415.253-.419.169-.774.397-1.066.684-.296.287-.524.624-.684 1.011-.159.383-.239.791-.239 1.224h1.641c0-.287.036-.542.109-.766.073-.227.182-.421.328-.581.142-.15.319-.266.534-.348.214-.082.467-.123.758-.123.228 0 .433.038.616.116.186.077.346.184.478.321s.232.301.301.492c.068.192.102.404.102.636 0 .173-.025.346-.075.52-.045.168-.123.351-.232.547-.114.195-.262.412-.445.649-.182.232-.407.497-.676.793l-3.241 3.527V143h6.679Zm-1.914 24v-9.953h-.102l-4.095 1.517v1.443l2.55-.937V167h1.647Zm-2.693-53.715v1.285h.977c.283 0 .538.034.766.103.232.064.431.162.595.294.164.137.289.307.376.512.086.206.129.452.129.739 0 .255-.038.483-.116.683-.073.196-.18.36-.321.493-.146.141-.326.248-.54.321-.21.068-.447.102-.711.102-.246 0-.472-.036-.677-.109-.2-.073-.373-.175-.519-.308-.151-.127-.267-.282-.349-.464-.077-.187-.116-.39-.116-.609h-1.634c0 .465.089.873.267 1.224.182.346.423.638.724.875s.65.414 1.046.533c.397.118.809.178 1.237.178.474 0 .914-.064 1.32-.192.41-.132.765-.323 1.066-.574.296-.246.529-.549.697-.909.174-.365.26-.779.26-1.244 0-.251-.029-.492-.089-.725-.059-.237-.155-.458-.287-.663-.132-.2-.303-.38-.512-.54-.206-.164-.456-.296-.752-.396.25-.114.469-.253.656-.417.187-.165.342-.34.465-.527.123-.191.214-.389.273-.595.064-.205.096-.41.096-.615 0-.465-.078-.872-.233-1.223-.155-.351-.373-.648-.656-.889-.278-.237-.615-.415-1.012-.533-.391-.123-.822-.185-1.292-.185-.46 0-.884.069-1.271.205-.383.137-.716.326-.998.568-.283.246-.504.535-.663.868-.16.332-.239.697-.239 1.094h1.633c0-.215.039-.408.117-.582.082-.173.193-.321.335-.444.136-.123.298-.216.485-.28.191-.068.399-.103.622-.103.251 0 .472.035.663.103.196.068.358.164.485.287.128.132.224.292.288.478.068.187.102.399.102.636 0 .219-.036.424-.109.615-.069.187-.169.345-.301.472-.141.146-.321.26-.54.342-.219.077-.474.116-.766.116h-.977Zm36.13 26.167v-6.405h-1.681l-4.3 6.726.041 1.005h4.307V143h1.633v-2.222h1.251v-1.326h-1.251Zm-4.313 0 2.488-3.862.192-.356v4.218h-2.68Z"/><path fill="#13B5B8" fill-opacity=".25" d="M524.083 154h23.627v16h-23.627v-16Zm31.503-24h23.626v16h-23.626v-16Zm-31.503 0h23.627v16h-23.627v-16Zm9.844 16h3.938v8h-3.938v-8Zm31.503-24h3.938v8h-3.938v-8Zm-9.844-16h23.626v16h-23.626v-16Zm13.782 18h13.782v2h-13.782v-2Zm0-22h13.782v2h-13.782v-2Zm-1.969 0h1.969v4h-1.969v-4Zm13.782 2h1.969v20h-1.969v-20Z"/><path fill="#000" d="M538.596 143v-1.319h-4.634l2.215-2.366c.291-.309.56-.61.806-.902.251-.292.467-.581.65-.868.177-.287.316-.577.417-.868.104-.296.157-.602.157-.916 0-.42-.069-.802-.205-1.149-.137-.351-.335-.651-.595-.902-.264-.251-.59-.447-.978-.588-.382-.141-.818-.212-1.305-.212-.52 0-.991.084-1.415.253-.419.169-.775.397-1.067.684-.296.287-.524.624-.683 1.011-.16.383-.239.791-.239 1.224h1.64c0-.287.037-.542.11-.766.072-.227.182-.421.328-.581.141-.15.319-.266.533-.348.214-.082.467-.123.759-.123.227 0 .433.038.615.116.187.077.346.184.478.321.133.137.233.301.301.492.069.192.103.404.103.636 0 .173-.025.346-.075.52-.046.168-.124.351-.233.547-.114.195-.262.412-.444.649-.183.232-.408.497-.677.793l-3.24 3.527V143h6.678Zm-1.914 24v-9.953h-.102l-4.095 1.517v1.443l2.55-.937V167h1.647Zm28.81-29.715v1.285h.977c.283 0 .538.034.766.103.232.064.43.162.595.294.164.137.289.307.376.512.086.206.129.452.129.739 0 .255-.038.483-.116.683-.073.196-.18.36-.321.493-.146.141-.326.248-.54.321-.21.068-.447.102-.711.102-.246 0-.472-.036-.677-.109-.2-.073-.374-.175-.519-.308-.151-.127-.267-.282-.349-.464-.077-.187-.116-.39-.116-.609h-1.634c0 .465.089.873.267 1.224.182.346.423.638.724.875s.65.414 1.046.533c.397.118.809.178 1.237.178.474 0 .914-.064 1.32-.192.41-.132.765-.323 1.066-.574.296-.246.529-.549.697-.909.174-.365.26-.779.26-1.244 0-.251-.029-.492-.089-.725-.059-.237-.155-.458-.287-.663-.132-.2-.303-.38-.512-.54-.206-.164-.456-.296-.752-.396.25-.114.469-.253.656-.417.187-.165.342-.34.465-.527.123-.191.214-.389.273-.595.064-.205.096-.41.096-.615 0-.465-.078-.872-.233-1.223-.155-.351-.373-.648-.656-.889-.278-.237-.615-.415-1.012-.533-.392-.123-.822-.185-1.292-.185-.46 0-.884.069-1.271.205-.383.137-.716.326-.998.568-.283.246-.504.535-.663.868-.16.332-.239.697-.239 1.094h1.633c0-.215.039-.408.117-.582.082-.173.193-.321.335-.444.136-.123.298-.216.485-.28.191-.068.399-.103.622-.103.251 0 .472.035.663.103.196.068.358.164.485.287.128.132.224.292.287.478.069.187.103.399.103.636 0 .219-.036.424-.109.615-.069.187-.169.345-.301.472-.141.146-.321.26-.54.342-.219.077-.474.116-.766.116h-.977Zm3.643-21.833v-6.405h-1.681l-4.3 6.726.041 1.005h4.306V119h1.634v-2.222h1.251v-1.326h-1.251Zm-4.313 0 2.488-3.862.191-.356v4.218h-2.679Z"/><path fill="#13B5B8" fill-opacity=".25" d="M606.777 138h23.627v16h-23.627v-16Zm31.503 0h23.627v16H638.28v-16Zm-31.503-24h23.627v16h-23.627v-16Zm9.845 16h3.938v8h-3.938v-8Zm0 24h3.938v8h-3.938v-8Zm31.502 0h3.938v8h-3.938v-8Zm0-24h3.938v8h-3.938v-8Zm-27.564 28h27.564v4H620.56v-4Zm17.72-44h23.627v16H638.28v-16Zm13.782 18h13.783v2h-13.783v-2Zm0-22h13.783v2h-13.783v-2Zm-1.969 0h1.969v4h-1.969v-4Zm13.783 2h1.969v20h-1.969v-20Z"/><path fill="#000" d="M622.275 127v-1.319h-4.634l2.214-2.366c.292-.309.561-.61.807-.902.251-.292.467-.581.649-.868.178-.287.317-.577.417-.868.105-.296.158-.602.158-.916 0-.42-.069-.802-.205-1.149-.137-.351-.335-.651-.595-.902-.264-.251-.59-.447-.978-.588-.382-.141-.818-.212-1.305-.212-.52 0-.992.084-1.415.253-.42.169-.775.397-1.067.684-.296.287-.524.624-.683 1.011-.16.383-.24.791-.24 1.224h1.641c0-.287.036-.542.109-.766.073-.227.183-.421.329-.581.141-.15.319-.266.533-.348.214-.082.467-.123.759-.123.227 0 .432.038.615.116.187.077.346.184.478.321s.233.301.301.492c.068.192.103.404.103.636 0 .173-.025.346-.076.52-.045.168-.123.351-.232.547-.114.195-.262.412-.444.649-.183.232-.408.497-.677.793l-3.24 3.527V127h6.678Zm-2.898 24v-9.953h-.103l-4.095 1.517v1.443l2.55-.937V151h1.648Zm28.809-5.715v1.285h.978c.282 0 .537.034.765.103.233.064.431.162.595.294.164.137.289.307.376.512.086.206.13.452.13.739 0 .255-.039.483-.116.683-.073.196-.18.36-.322.493-.146.141-.326.248-.54.321-.209.068-.446.102-.711.102-.246 0-.471-.036-.676-.109-.201-.073-.374-.175-.52-.308-.15-.127-.267-.282-.349-.464-.077-.187-.116-.39-.116-.609h-1.634c0 .465.089.873.267 1.224.182.346.424.638.725.875.3.237.649.414 1.045.533.397.118.809.178 1.238.178.474 0 .913-.064 1.319-.192.41-.132.766-.323 1.067-.574.296-.246.528-.549.697-.909.173-.365.26-.779.26-1.244 0-.251-.03-.492-.089-.725-.06-.237-.155-.458-.287-.663-.133-.2-.304-.38-.513-.54-.205-.164-.456-.296-.752-.396.251-.114.469-.253.656-.417.187-.165.342-.34.465-.527.123-.191.214-.389.273-.595.064-.205.096-.41.096-.615 0-.465-.077-.872-.232-1.223-.155-.351-.374-.648-.657-.889-.278-.237-.615-.415-1.011-.533-.392-.123-.823-.185-1.292-.185-.461 0-.884.069-1.272.205-.383.137-.715.326-.998.568-.282.246-.503.535-.663.868-.159.332-.239.697-.239 1.094h1.634c0-.215.038-.408.116-.582.082-.173.194-.321.335-.444.137-.123.298-.216.485-.28.192-.068.399-.103.622-.103.251 0 .472.035.663.103.196.068.358.164.486.287.127.132.223.292.287.478.068.187.102.399.102.636 0 .219-.036.424-.109.615-.068.187-.169.345-.301.472-.141.146-.321.26-.54.342-.219.077-.474.116-.765.116h-.978Zm3.644-21.833v-6.405h-1.682l-4.3 6.726.041 1.005h4.307V127h1.634v-2.222h1.251v-1.326h-1.251Zm-4.314 0 2.488-3.862.192-.356v4.218h-2.68Z"/><path fill="#13B5B8" fill-opacity=".25" d="M689.472 138h23.627v16h-23.627v-16Zm31.502 0h23.627v16h-23.627v-16Zm31.503 0h23.627v16h-23.627v-16Zm9.844 16h3.938v8h-3.938v-8Zm-63.005 0h3.938v8h-3.938v-8Zm31.503 0h3.938v4h-3.938v-4Zm0-24h3.938v8h-3.938v-8Zm-27.565 28h59.067v4h-59.067v-4Zm17.72-44h23.627v16h-23.627v-16Zm-3.937-4h29.533v2h-29.533v-2Zm0 10h3.937v2h-3.937v-2Zm27.564 0h3.938v2h-3.938v-2Zm-27.564-8h1.968v8h-1.968v-8Zm29.533-2h1.969v10h-1.969v-10Z"/><path fill="#000" d="M736.472 151v-1.319h-4.634l2.214-2.366c.292-.309.561-.61.807-.902.251-.292.467-.581.649-.868.178-.287.317-.577.417-.868.105-.296.158-.602.158-.916 0-.42-.069-.802-.205-1.149-.137-.351-.335-.651-.595-.902-.264-.251-.59-.447-.978-.588-.382-.141-.818-.212-1.305-.212-.52 0-.992.084-1.415.253-.42.169-.775.397-1.067.684-.296.287-.524.624-.683 1.011-.16.383-.24.791-.24 1.224h1.641c0-.287.036-.542.109-.766.073-.227.183-.421.328-.581.142-.15.319-.266.534-.348.214-.082.467-.123.758-.123.228 0 .433.038.616.116.187.077.346.184.478.321s.233.301.301.492c.068.192.103.404.103.636 0 .173-.026.346-.076.52-.045.168-.123.351-.232.547-.114.195-.262.412-.444.649-.183.232-.408.497-.677.793l-3.24 3.527V151h6.678Zm-34.401 0v-9.953h-.102l-4.095 1.517v1.443l2.55-.937V151h1.647Zm60.312-5.715v1.285h.978c.282 0 .537.034.765.103.233.064.431.162.595.294.164.137.289.307.376.512.087.206.13.452.13.739 0 .255-.039.483-.116.683-.073.196-.18.36-.322.493-.145.141-.326.248-.54.321-.209.068-.446.102-.711.102-.246 0-.471-.036-.676-.109-.201-.073-.374-.175-.52-.308-.15-.127-.267-.282-.349-.464-.077-.187-.116-.39-.116-.609h-1.634c0 .465.089.873.267 1.224.182.346.424.638.725.875.3.237.649.414 1.046.533.396.118.808.178 1.237.178.474 0 .914-.064 1.319-.192.41-.132.766-.323 1.067-.574.296-.246.528-.549.697-.909.173-.365.26-.779.26-1.244 0-.251-.03-.492-.089-.725-.059-.237-.155-.458-.287-.663-.133-.2-.303-.38-.513-.54-.205-.164-.456-.296-.752-.396.251-.114.469-.253.656-.417.187-.165.342-.34.465-.527.123-.191.214-.389.274-.595.063-.205.095-.41.095-.615 0-.465-.077-.872-.232-1.223-.155-.351-.374-.648-.656-.889-.278-.237-.616-.415-1.012-.533-.392-.123-.823-.185-1.292-.185-.46 0-.884.069-1.272.205-.382.137-.715.326-.998.568-.282.246-.503.535-.663.868-.159.332-.239.697-.239 1.094h1.634c0-.215.039-.408.116-.582.082-.173.194-.321.335-.444.137-.123.298-.216.485-.28.192-.068.399-.103.622-.103.251 0 .472.035.663.103.196.068.358.164.486.287.127.132.223.292.287.478.068.187.102.399.102.636 0 .219-.036.424-.109.615-.068.187-.169.345-.301.472-.141.146-.321.26-.54.342-.218.077-.474.116-.765.116h-.978Zm-27.859-21.833v-6.405h-1.682l-4.3 6.726.041 1.005h4.307V127h1.634v-2.222h1.251v-1.326h-1.251Zm-4.314 0 2.489-3.862.191-.356v4.218h-2.68Z"/><path fill="#13B5B8" fill-opacity=".25" d="M862.736 114h23.627v16h-23.627v-16Zm13.782 18H890.3v2h-13.782v-2Zm0-22H890.3v2h-13.782v-2Z"/><path fill="#13B5B8" fill-opacity=".25" d="M874.549 110h1.969v4h-1.969v-4Zm13.782 2h1.969v20h-1.969v-20Zm-88.601 26h23.627v16H799.73v-16Zm31.503 0h23.627v16h-23.627v-16Zm31.503 0h23.627v16h-23.627v-16Zm9.844 16h3.938v8h-3.938v-8Zm-63.005 0h3.938v8h-3.938v-8Zm31.503 0h3.938v4h-3.938v-4Zm31.502-24h3.938v8h-3.938v-8Zm-59.067 28h59.067v4h-59.067v-4Z"/><path fill="#000" d="M846.731 151v-1.319h-4.635l2.215-2.366c.292-.309.561-.61.807-.902.251-.292.467-.581.649-.868.178-.287.317-.577.417-.868.105-.296.158-.602.158-.916 0-.42-.069-.802-.206-1.149-.136-.351-.335-.651-.594-.902-.265-.251-.59-.447-.978-.588-.383-.141-.818-.212-1.305-.212-.52 0-.992.084-1.416.253-.419.169-.774.397-1.066.684-.296.287-.524.624-.684 1.011-.159.383-.239.791-.239 1.224h1.641c0-.287.036-.542.109-.766.073-.227.183-.421.328-.581.142-.15.319-.266.534-.348.214-.082.467-.123.758-.123.228 0 .433.038.616.116.186.077.346.184.478.321s.233.301.301.492c.068.192.102.404.102.636 0 .173-.025.346-.075.52-.045.168-.123.351-.232.547-.114.195-.262.412-.445.649-.182.232-.407.497-.676.793l-3.241 3.527V151h6.679Zm-34.401 0v-9.953h-.102l-4.095 1.517v1.443l2.55-.937V151h1.647Zm60.312-5.715v1.285h.977c.283 0 .538.034.766.103.233.064.431.162.595.294.164.137.289.307.376.512.086.206.13.452.13.739 0 .255-.039.483-.117.683-.072.196-.18.36-.321.493-.146.141-.326.248-.54.321-.209.068-.446.102-.711.102-.246 0-.471-.036-.677-.109-.2-.073-.373-.175-.519-.308-.15-.127-.267-.282-.349-.464-.077-.187-.116-.39-.116-.609h-1.634c0 .465.089.873.267 1.224.182.346.424.638.725.875.3.237.649.414 1.045.533.397.118.809.178 1.238.178.474 0 .913-.064 1.319-.192.41-.132.766-.323 1.066-.574.297-.246.529-.549.698-.909.173-.365.259-.779.259-1.244 0-.251-.029-.492-.088-.725-.06-.237-.155-.458-.287-.663-.133-.2-.304-.38-.513-.54-.205-.164-.456-.296-.752-.396.251-.114.469-.253.656-.417.187-.165.342-.34.465-.527.123-.191.214-.389.273-.595.064-.205.096-.41.096-.615 0-.465-.077-.872-.232-1.223-.155-.351-.374-.648-.657-.889-.278-.237-.615-.415-1.011-.533-.392-.123-.823-.185-1.292-.185-.461 0-.884.069-1.272.205-.383.137-.715.326-.998.568-.282.246-.503.535-.663.868-.159.332-.239.697-.239 1.094h1.634c0-.215.038-.408.116-.582.082-.173.194-.321.335-.444.137-.123.298-.216.485-.28.192-.068.399-.103.622-.103.251 0 .472.035.663.103.196.068.358.164.486.287.127.132.223.292.287.478.068.187.102.399.102.636 0 .219-.036.424-.109.615-.068.187-.169.345-.301.472-.141.146-.321.26-.54.342-.219.077-.474.116-.766.116h-.977Zm3.644-20.833v-6.405h-1.682l-4.3 6.726.041 1.005h4.307V128h1.634v-2.222h1.25v-1.326h-1.25Zm-4.314 0 2.488-3.862.192-.356v4.218h-2.68Z"/><path fill="#13B5B8" fill-opacity=".25" d="M1008.44 125h23.62v16h-23.62v-16Zm13.78 18H1036v2h-13.78v-2Zm0-22H1036v2h-13.78v-2Zm-1.97 0h1.97v4h-1.97v-4Zm13.78 2h1.97v20h-1.97v-20Zm-120.103 2h23.627v16h-23.627v-16Zm31.503 0h23.627v16H945.43v-16Zm31.503 0h23.627v16h-23.627v-16Zm9.844 16h3.938v4h-3.938v-4Zm-63.005 0h3.938v8h-3.938v-8Zm31.503 0h3.937v4h-3.937v-4Zm63.005 0h3.94v8h-3.94v-8Zm-90.57 4h90.57v4h-90.57v-4Z"/><path fill="#000" d="M960.928 138v-1.319h-4.635l2.215-2.366c.292-.309.561-.61.807-.902.25-.292.467-.581.649-.868.178-.287.317-.577.417-.868.105-.296.157-.602.157-.916 0-.42-.068-.802-.205-1.149-.136-.351-.335-.651-.594-.902-.265-.251-.591-.447-.978-.588-.383-.141-.818-.212-1.306-.212-.519 0-.991.084-1.415.253-.419.169-.774.397-1.066.684-.296.287-.524.624-.684 1.011-.159.383-.239.791-.239 1.224h1.641c0-.287.036-.542.109-.766.073-.227.182-.421.328-.581.142-.15.319-.266.533-.348.215-.082.468-.123.759-.123.228 0 .433.038.615.116.187.077.347.184.479.321s.232.301.301.492c.068.192.102.404.102.636 0 .173-.025.346-.075.52-.045.168-.123.351-.232.547-.114.195-.262.412-.445.649-.182.232-.408.497-.676.793l-3.241 3.527V138h6.679Zm-34.401 0v-9.953h-.103l-4.094 1.517v1.443l2.55-.937V138h1.647Zm61.296-5.715v1.285h.978c.282 0 .538.034.766.103.232.064.43.162.594.294.164.137.29.307.376.512.087.206.13.452.13.739 0 .255-.039.483-.116.683-.073.196-.18.36-.321.493-.146.141-.326.248-.54.321-.21.068-.447.102-.711.102-.246 0-.472-.036-.677-.109-.201-.073-.374-.175-.52-.308-.15-.127-.266-.282-.348-.464-.078-.187-.116-.39-.116-.609h-1.634c0 .465.089.873.266 1.224.183.346.424.638.725.875s.649.414 1.046.533c.396.118.809.178 1.237.178.474 0 .914-.064 1.32-.192.41-.132.765-.323 1.066-.574.296-.246.529-.549.697-.909.173-.365.26-.779.26-1.244 0-.251-.03-.492-.089-.725-.059-.237-.155-.458-.287-.663-.132-.2-.303-.38-.513-.54-.205-.164-.455-.296-.752-.396.251-.114.47-.253.657-.417.186-.165.341-.34.464-.527.123-.191.215-.389.274-.595.064-.205.096-.41.096-.615 0-.465-.078-.872-.233-1.223-.155-.351-.374-.648-.656-.889-.278-.237-.615-.415-1.012-.533-.392-.123-.822-.185-1.292-.185-.46 0-.884.069-1.271.205-.383.137-.716.326-.998.568-.283.246-.504.535-.663.868-.16.332-.24.697-.24 1.094h1.634c0-.215.039-.408.116-.582.082-.173.194-.321.335-.444.137-.123.299-.216.486-.28.191-.068.398-.103.622-.103.25 0 .471.035.663.103.196.068.358.164.485.287.128.132.223.292.287.478.069.187.103.399.103.636 0 .219-.037.424-.11.615-.068.187-.168.345-.3.472-.142.146-.322.26-.54.342-.219.077-.474.116-.766.116h-.978Zm34.157 2.167v-6.405h-1.68l-4.3 6.726.04 1.005h4.31V138h1.63v-2.222h1.26v-1.326h-1.26Zm-4.31 0 2.49-3.862.19-.356v4.218h-2.68Z"/><path fill="#13B5B8" d="M44.2068 116.775h-4.14l-1.14 3.225h-1.455l3.825-10.74h1.77l3.765 10.74h-1.515l-1.11-3.225Zm-.39-1.155-1.65-4.875-1.755 4.875h3.405ZM53.9459 120h-1.44l-3.06-9v9h-1.29v-10.74h1.89l3.195 9.345 3.12-9.345h1.905V120h-1.305v-9l-3.015 9Zm8.0754-4.545V120h-1.365v-10.74h4.44c1.13 0 1.98.31 2.55.93.5.54.75 1.28.75 2.22 0 .95-.305 1.705-.915 2.265-.56.52-1.255.78-2.085.78h-3.375Zm0-1.215h2.865c.65 0 1.16-.165 1.53-.495.37-.33.555-.795.555-1.395 0-.59-.185-1.05-.555-1.38-.37-.33-.88-.495-1.53-.495h-2.865v3.765Zm16.783 5.76h-1.44l-3.06-9v9h-1.29v-10.74h1.89l3.195 9.345 3.12-9.345h1.905V120h-1.305v-9l-3.015 9Zm11.1204-10.905c1.66 0 2.97.575 3.93 1.725.83 1 1.245 2.27 1.245 3.81 0 1.77-.535 3.17-1.605 4.2-.94.89-2.13 1.335-3.57 1.335-1.67 0-2.985-.575-3.945-1.725-.83-1-1.245-2.27-1.245-3.81 0-1.77.54-3.17 1.62-4.2.93-.89 2.12-1.335 3.57-1.335Zm-.015 1.215c-1.22 0-2.185.445-2.895 1.335-.61.78-.915 1.775-.915 2.985 0 1.39.395 2.485 1.185 3.285.69.69 1.565 1.035 2.625 1.035 1.23 0 2.2-.445 2.91-1.335.61-.78.915-1.775.915-2.985 0-1.39-.395-2.485-1.185-3.285-.69-.69-1.57-1.035-2.64-1.035Zm7.0301 9.69v-10.74h4.1402c1.45 0 2.565.54 3.345 1.62.68.95 1.02 2.2 1.02 3.75 0 1.78-.44 3.15-1.32 4.11-.77.84-1.785 1.26-3.045 1.26h-4.1402Zm1.365-1.215h2.5352c2.16 0 3.24-1.385 3.24-4.155 0-2.77-1.08-4.155-3.24-4.155h-2.5352v8.31ZM114.4 109.26h1.365v7.365c0 1.16-.425 2.06-1.275 2.7-.73.56-1.685.84-2.865.84-1.36 0-2.41-.355-3.15-1.065-.64-.63-.96-1.455-.96-2.475v-7.365h1.365v7.365c0 .74.24 1.315.72 1.725.48.4 1.155.6 2.025.6.92 0 1.63-.23 2.13-.69.43-.41.645-.955.645-1.635v-7.365Zm5.054 0v9.525h5.295V120h-6.66v-10.74h1.365Zm12.629 7.515h-4.14l-1.14 3.225h-1.455l3.825-10.74h1.77l3.765 10.74h-1.515l-1.11-3.225Zm-.39-1.155-1.65-4.875-1.755 4.875h3.405Zm8.449-5.145V120h-1.365v-9.525h-3.54v-1.215h8.415v1.215h-3.51Zm6.639-1.215V120h-1.395v-10.74h1.395Zm6.982-.165c1.66 0 2.97.575 3.93 1.725.83 1 1.245 2.27 1.245 3.81 0 1.77-.535 3.17-1.605 4.2-.94.89-2.13 1.335-3.57 1.335-1.67 0-2.985-.575-3.945-1.725-.83-1-1.245-2.27-1.245-3.81 0-1.77.54-3.17 1.62-4.2.93-.89 2.12-1.335 3.57-1.335Zm-.015 1.215c-1.22 0-2.185.445-2.895 1.335-.61.78-.915 1.775-.915 2.985 0 1.39.395 2.485 1.185 3.285.69.69 1.565 1.035 2.625 1.035 1.23 0 2.2-.445 2.91-1.335.61-.78.915-1.775.915-2.985 0-1.39-.395-2.485-1.185-3.285-.69-.69-1.57-1.035-2.64-1.035Zm15.235-1.05V120h-1.53l-5.565-8.715V120h-1.29v-10.74h1.485l5.61 8.775v-8.775h1.29Zm5.183 10.74v-10.74h4.14c1.45 0 2.565.54 3.345 1.62.68.95 1.02 2.2 1.02 3.75 0 1.78-.44 3.15-1.32 4.11-.77.84-1.785 1.26-3.045 1.26h-4.14Zm1.365-1.215h2.535c2.16 0 3.24-1.385 3.24-4.155 0-2.77-1.08-4.155-3.24-4.155h-2.535v8.31Zm10.65-3.675v3.675h6.33V120h-7.695v-10.74h7.44v1.215h-6.075v3.42h5.85v1.215h-5.85Zm9.844.345V120h-1.365v-10.74h4.44c1.13 0 1.98.31 2.55.93.5.54.75 1.28.75 2.22 0 .95-.305 1.705-.915 2.265-.56.52-1.255.78-2.085.78h-3.375Zm0-1.215h2.865c.65 0 1.16-.165 1.53-.495.37-.33.555-.795.555-1.395 0-.59-.185-1.05-.555-1.38-.37-.33-.88-.495-1.53-.495h-2.865v3.765Zm12.349-3.765V120h-1.365v-9.525h-3.54v-1.215h8.415v1.215h-3.51Zm11.889 4.635h-5.535V120h-1.365v-10.74h1.365v4.635h5.535v-4.635h1.365V120h-1.365v-4.89Zm-101.98 46.648h-.26v2.256h.26c1.641 0 3.031-.224 4.17-.67 1.149-.456 2.046-1.048 2.693-1.778 1.076-1.203 1.778-2.579 2.106-4.128.328-1.559.492-3.109.492-4.649v-.916c0-1.085-.15-2.169-.451-3.254-.301-1.094-.752-2.005-1.354-2.734-.51-.62-1.143-1.117-1.9-1.49-.747-.383-1.631-.575-2.652-.575-1.021 0-1.919.187-2.694.561-.765.364-1.403.857-1.914 1.476-.519.629-.911 1.363-1.175 2.202-.256.829-.383 1.713-.383 2.652 0 .802.109 1.6.328 2.393.219.792.56 1.503 1.025 2.132.465.629 1.053 1.14 1.764 1.532.72.382 1.572.574 2.557.574.51 0 .979-.05 1.408-.151.437-.109.834-.255 1.189-.437.356-.182.675-.392.957-.629.283-.246.533-.506.752-.779v.027c-.045.839-.178 1.65-.396 2.434-.219.783-.643 1.517-1.272 2.201-.519.556-1.207.989-2.064 1.299-.848.3-1.91.451-3.186.451Zm3.022-6.508c-.611 0-1.144-.132-1.6-.396-.447-.274-.816-.629-1.107-1.067-.301-.437-.524-.934-.67-1.49-.146-.565-.219-1.139-.219-1.723 0-.656.082-1.267.246-1.832.164-.574.406-1.071.725-1.49.31-.41.692-.734 1.148-.971.456-.237.98-.355 1.572-.355.52 0 1.008.127 1.463.383.465.255.875.619 1.231 1.093.346.483.62 1.071.82 1.764.21.693.315 1.481.315 2.365v.821c-.155.428-.37.82-.643 1.175-.264.347-.565.647-.902.903-.347.264-.725.469-1.135.615-.401.137-.816.205-1.244.205Zm13.795 6.508h-.26v2.256h.26c1.64 0 3.03-.224 4.17-.67 1.148-.456 2.046-1.048 2.693-1.778 1.075-1.203 1.777-2.579 2.105-4.128.328-1.559.493-3.109.493-4.649v-.916c0-1.085-.151-2.169-.452-3.254-.3-1.094-.752-2.005-1.353-2.734-.511-.62-1.144-1.117-1.901-1.49-.747-.383-1.631-.575-2.652-.575-1.021 0-1.918.187-2.693.561-.766.364-1.404.857-1.914 1.476-.52.629-.912 1.363-1.176 2.202-.255.829-.383 1.713-.383 2.652 0 .802.109 1.6.328 2.393.219.792.561 1.503 1.026 2.132.464.629 1.052 1.14 1.763 1.532.72.382 1.573.574 2.557.574.51 0 .98-.05 1.408-.151.438-.109.834-.255 1.19-.437.355-.182.674-.392.957-.629.282-.246.533-.506.752-.779v.027c-.046.839-.178 1.65-.397 2.434-.219.783-.642 1.517-1.271 2.201-.52.556-1.208.989-2.065 1.299-.847.3-1.909.451-3.185.451Zm3.021-6.508c-.611 0-1.144-.132-1.6-.396-.446-.274-.815-.629-1.107-1.067-.301-.437-.524-.934-.67-1.49-.146-.565-.219-1.139-.219-1.723 0-.656.082-1.267.246-1.832.165-.574.406-1.071.725-1.49.31-.41.693-.734 1.149-.971.455-.237.979-.355 1.572-.355.519 0 1.007.127 1.463.383.465.255.875.619 1.23 1.093.347.483.62 1.071.82 1.764.21.693.315 1.481.315 2.365v.821c-.155.428-.369.82-.643 1.175-.264.347-.565.647-.902.903-.346.264-.725.469-1.135.615-.401.137-.816.205-1.244.205Z"/><path stroke="#13B5B8" stroke-opacity=".7" stroke-width="4" d="m13 82 67.1429-69L116.4 47.1584h77.214L248 82m27 0 26-69 33 50.5 84 9 35.5 9.5"/><path stroke="#13B5B8" stroke-opacity=".6" stroke-width="4" d="m537 82 67.143-69L640.4 47.1584h77.214L772 82m27 0 67.143-69L902.4 47.1584h77.214L1034 82"/></svg>