<svg xmlns="http://www.w3.org/2000/svg" width="282" height="611" fill="none" viewBox="0 0 282 611"><path fill="#000" d="M0 0h282v63.8H0z"/><path fill="#000" d="M0 60.9h282v276.95H0zM0 338h282v273H0z"/><path fill="#2F2A30" d="M0 233h282v187H0z"/><path fill="#6E70A3" d="M12 384h181.017v2H12zm0-10h181.017v2H12zm0-10h181.017v2H12zm0-11h181.017v2H12zm0-10h181.017v2H12zm0-10h181.017v2H12zm0-10h181.017v2H12zm0-10h181.017v2H12zm0-10h181.017v2H12zm0-10h181.017v2H12zm0-10h181.017v2H12zm199.322 101H270v2h-58.678zm0-10H270v2h-58.678zm0-10H270v2h-58.678zm0-11H270v2h-58.678zm0-10H270v2h-58.678zm0-10H270v2h-58.678zm0-10H270v2h-58.678zm0-10H270v2h-58.678zm0-10H270v2h-58.678zm0-10H270v2h-58.678zm0-10H270v2h-58.678z"/><path fill="#221D03" d="M30 263h22v145H30zm40 0h22v145H70V263Zm40 0h22v145h-22zm40 0h22v145h-22zm40 0h22v145h-22zm40 0h22v145h-22z"/><path fill="#6E70A3" d="M12.69 276.86h.76v.74c.4-.567.9267-.85 1.58-.85.6333 0 1.0933.253 1.38.76.2467-.287.4833-.483.71-.59.2333-.113.52-.17.86-.17 1 0 1.5.47 1.5 1.41V282h-.82v-3.52c0-.68-.32-1.02-.96-1.02-.3333 0-.6167.13-.85.39-.2333.26-.35.57-.35.93V282h-.82v-3.52c0-.68-.3167-1.02-.95-1.02-.34 0-.63.13-.87.39-.2333.253-.35.563-.35.93V282h-.82v-5.14Zm12.7436 4.45v.66c-.2267.08-.4033.12-.53.12-.5333 0-.8233-.243-.87-.73-.3667.5-.95.75-1.75.75-.5533 0-.9833-.153-1.29-.46-.2667-.267-.4-.61-.4-1.03 0-.48.17-.85.51-1.11.1933-.147.5967-.29 1.21-.43l1.68-.38.01-.43c0-.513-.3867-.77-1.16-.77-.74 0-1.1367.3-1.19.9h-.83c.02-.453.1333-.8.34-1.04.3533-.407.9267-.61 1.72-.61 1.2867 0 1.93.467 1.93 1.4v2.87c0 .253.11.38.33.38.0267 0 .0967-.02.21-.06.04-.013.0667-.023.08-.03Zm-1.43-1.94-1.32.34c-.4733.12-.8.243-.98.37-.1733.127-.26.303-.26.53 0 .527.34.79 1.02.79.48 0 .8867-.157 1.22-.47.2133-.193.32-.413.32-.66v-.9Zm4.509-.03 1.78 2.66h-.95l-1.29-1.98-1.31 1.98h-.93l1.82-2.62-1.73-2.52h.94l1.24 1.86 1.24-1.86h.92l-1.73 2.48Zm45.2824-19.13v-10.92h1.14v1.185c.57-.9 1.39-1.35 2.46-1.35 1.09 0 1.93.42 2.52 1.26.52.73.78 1.69.78 2.88 0 1.27-.34 2.26-1.02 2.97-.59.62-1.355.93-2.295.93-.95 0-1.735-.345-2.355-1.035v4.08h-1.23Zm3.39-9.945c-.65 0-1.175.265-1.575.795-.39.53-.585 1.24-.585 2.13 0 .92.225 1.64.675 2.16.38.44.875.66 1.485.66.68 0 1.22-.255 1.62-.765.41-.52.615-1.205.615-2.055 0-.94-.23-1.68-.69-2.22-.41-.47-.925-.705-1.545-.705Zm10.5135 1.14h-1.35c-.04-.77-.555-1.155-1.545-1.155-.51 0-.915.1-1.215.3-.29.19-.435.45-.435.78 0 .5.475.86 1.425 1.08l1.185.27c.77.18 1.325.435 1.665.765.34.33.51.78.51 1.35 0 .73-.285 1.31-.855 1.74-.57.42-1.34.63-2.31.63-1.06 0-1.865-.25-2.415-.75-.46-.41-.705-.955-.735-1.635h1.395c.08.35.19.605.33.765.27.32.775.48 1.515.48.55 0 .985-.1 1.305-.3.33-.21.495-.485.495-.825 0-.51-.395-.86-1.185-1.05l-1.155-.27c-.88-.21-1.495-.46-1.845-.75-.4-.33-.6-.805-.6-1.425 0-.7.265-1.255.795-1.665.54-.41 1.26-.615 2.16-.615.94 0 1.67.235 2.19.705.45.41.675.935.675 1.575ZM26.795 260.21v-10.92h1.14v1.185c.57-.9 1.39-1.35 2.46-1.35 1.09 0 1.93.42 2.52 1.26.52.73.78 1.69.78 2.88 0 1.27-.34 2.26-1.02 2.97-.59.62-1.355.93-2.295.93-.95 0-1.735-.345-2.355-1.035v4.08h-1.23Zm3.39-9.945c-.65 0-1.175.265-1.575.795-.39.53-.585 1.24-.585 2.13 0 .92.225 1.64.675 2.16.38.44.875.66 1.485.66.68 0 1.22-.255 1.62-.765.41-.52.615-1.205.615-2.055 0-.94-.23-1.68-.69-2.22-.41-.47-.925-.705-1.545-.705Zm5.0385-.975h1.14v1.11c.6-.85 1.39-1.275 2.37-1.275.95 0 1.64.38 2.07 1.14.37-.43.725-.725 1.065-.885.35-.17.78-.255 1.29-.255 1.5 0 2.25.705 2.25 2.115V257h-1.23v-5.28c0-1.02-.48-1.53-1.44-1.53-.5 0-.925.195-1.275.585-.35.39-.525.855-.525 1.395V257h-1.23v-5.28c0-1.02-.475-1.53-1.425-1.53-.51 0-.945.195-1.305.585-.35.38-.525.845-.525 1.395V257h-1.23v-7.71Zm18.5454-3.03V257h-1.23v-1.065c-.49.83-1.25 1.245-2.28 1.245-1.13 0-2-.41-2.61-1.23-.53-.72-.795-1.67-.795-2.85 0-1.29.345-2.3 1.035-3.03.59-.63 1.355-.945 2.295-.945 1.04 0 1.825.39 2.355 1.17v-4.035h1.23Zm-3.375 4.005c-.68 0-1.23.27-1.65.81-.41.53-.615 1.235-.615 2.115 0 .91.24 1.625.72 2.145.41.46.93.69 1.56.69.65 0 1.165-.255 1.545-.765.39-.51.585-1.2.585-2.07 0-.95-.22-1.69-.66-2.22-.39-.47-.885-.705-1.485-.705Zm56.6411-.975h1.14v1.11c.6-.85 1.39-1.275 2.37-1.275.95 0 1.64.38 2.07 1.14.37-.43.725-.725 1.065-.885.35-.17.78-.255 1.29-.255 1.5 0 2.25.705 2.25 2.115V257h-1.23v-5.28c0-1.02-.48-1.53-1.44-1.53-.5 0-.925.195-1.275.585-.35.39-.525.855-.525 1.395V257h-1.23v-5.28c0-1.02-.475-1.53-1.425-1.53-.51 0-.945.195-1.305.585-.35.38-.525.845-.525 1.395V257h-1.23v-7.71Zm15.29-.165c1.16 0 2.045.405 2.655 1.215.54.7.81 1.65.81 2.85 0 1.34-.35 2.36-1.05 3.06-.6.61-1.41.915-2.43.915-1.18 0-2.08-.395-2.7-1.185-.54-.69-.81-1.62-.81-2.79 0-1.36.355-2.405 1.065-3.135.61-.62 1.43-.93 2.46-.93Zm0 1.125c-.7 0-1.25.265-1.65.795-.4.52-.6 1.235-.6 2.145 0 .95.225 1.675.675 2.175.39.44.91.66 1.56.66.69 0 1.225-.25 1.605-.75.39-.5.585-1.195.585-2.085 0-.98-.22-1.73-.66-2.25-.38-.46-.885-.69-1.515-.69Zm11.444-3.99V257h-1.23v-1.065c-.49.83-1.25 1.245-2.28 1.245-1.13 0-2-.41-2.61-1.23-.53-.72-.795-1.67-.795-2.85 0-1.29.345-2.3 1.035-3.03.59-.63 1.355-.945 2.295-.945 1.04 0 1.825.39 2.355 1.17v-4.035h1.23Zm-3.375 4.005c-.68 0-1.23.27-1.65.81-.41.53-.615 1.235-.615 2.115 0 .91.24 1.625.72 2.145.41.46.93.69 1.56.69.65 0 1.165-.255 1.545-.765.39-.51.585-1.2.585-2.07 0-.95-.22-1.69-.66-2.22-.39-.47-.885-.705-1.485-.705Zm23.481 5.7v.99c-.34.12-.605.18-.795.18-.8 0-1.235-.365-1.305-1.095-.55.75-1.425 1.125-2.625 1.125-.83 0-1.475-.23-1.935-.69-.4-.4-.6-.915-.6-1.545 0-.72.255-1.275.765-1.665.29-.22.895-.435 1.815-.645l2.52-.57.015-.645c0-.77-.58-1.155-1.74-1.155-1.11 0-1.705.45-1.785 1.35h-1.245c.03-.68.2-1.2.51-1.56.53-.61 1.39-.915 2.58-.915 1.93 0 2.895.7 2.895 2.1v4.305c0 .38.165.57.495.57.04 0 .145-.03.315-.09.06-.02.1-.035.12-.045Zm-2.145-2.91-1.98.51c-.71.18-1.2.365-1.47.555-.26.19-.39.455-.39.795 0 .79.51 1.185 1.53 1.185.72 0 1.33-.235 1.83-.705.32-.29.48-.62.48-.99v-1.35Zm3.493-3.765h1.14v1.11c.6-.85 1.39-1.275 2.37-1.275.95 0 1.64.38 2.07 1.14.37-.43.725-.725 1.065-.885.35-.17.78-.255 1.29-.255 1.5 0 2.25.705 2.25 2.115V257h-1.23v-5.28c0-1.02-.48-1.53-1.44-1.53-.5 0-.925.195-1.275.585-.35.39-.525.855-.525 1.395V257h-1.23v-5.28c0-1.02-.475-1.53-1.425-1.53-.51 0-.945.195-1.305.585-.35.38-.525.845-.525 1.395V257h-1.23v-7.71Zm18.546-3.03V257h-1.23v-1.065c-.49.83-1.25 1.245-2.28 1.245-1.13 0-2-.41-2.61-1.23-.53-.72-.795-1.67-.795-2.85 0-1.29.345-2.3 1.035-3.03.59-.63 1.355-.945 2.295-.945 1.04 0 1.825.39 2.355 1.17v-4.035h1.23Zm-3.375 4.005c-.68 0-1.23.27-1.65.81-.41.53-.615 1.235-.615 2.115 0 .91.24 1.625.72 2.145.41.46.93.69 1.56.69.65 0 1.165-.255 1.545-.765.39-.51.585-1.2.585-2.07 0-.95-.22-1.69-.66-2.22-.39-.47-.885-.705-1.485-.705Zm24.481 5.7v.99c-.34.12-.605.18-.795.18-.8 0-1.235-.365-1.305-1.095-.55.75-1.425 1.125-2.625 1.125-.83 0-1.475-.23-1.935-.69-.4-.4-.6-.915-.6-1.545 0-.72.255-1.275.765-1.665.29-.22.895-.435 1.815-.645l2.52-.57.015-.645c0-.77-.58-1.155-1.74-1.155-1.11 0-1.705.45-1.785 1.35h-1.245c.03-.68.2-1.2.51-1.56.53-.61 1.39-.915 2.58-.915 1.93 0 2.895.7 2.895 2.1v4.305c0 .38.165.57.495.57.04 0 .145-.03.315-.09.06-.02.1-.035.12-.045Zm-2.145-2.91-1.98.51c-.71.18-1.2.365-1.47.555-.26.19-.39.455-.39.795 0 .79.51 1.185 1.53 1.185.72 0 1.33-.235 1.83-.705.32-.29.48-.62.48-.99v-1.35Zm3.493-3.765h1.14v1.11c.6-.85 1.39-1.275 2.37-1.275.95 0 1.64.38 2.07 1.14.37-.43.725-.725 1.065-.885.35-.17.78-.255 1.29-.255 1.5 0 2.25.705 2.25 2.115V257h-1.23v-5.28c0-1.02-.48-1.53-1.44-1.53-.5 0-.925.195-1.275.585-.35.39-.525.855-.525 1.395V257h-1.23v-5.28c0-1.02-.475-1.53-1.425-1.53-.51 0-.945.195-1.305.585-.35.38-.525.845-.525 1.395V257h-1.23v-7.71Zm17.751 2.115h-1.35c-.04-.77-.555-1.155-1.545-1.155-.51 0-.915.1-1.215.3-.29.19-.435.45-.435.78 0 .5.475.86 1.425 1.08l1.185.27c.77.18 1.325.435 1.665.765.34.33.51.78.51 1.35 0 .73-.285 1.31-.855 1.74-.57.42-1.34.63-2.31.63-1.06 0-1.865-.25-2.415-.75-.46-.41-.705-.955-.735-1.635h1.395c.08.35.19.605.33.765.27.32.775.48 1.515.48.55 0 .985-.1 1.305-.3.33-.21.495-.485.495-.825 0-.51-.395-.86-1.185-1.05l-1.155-.27c-.88-.21-1.495-.46-1.845-.75-.4-.33-.6-.805-.6-1.425 0-.7.265-1.255.795-1.665.54-.41 1.26-.615 2.16-.615.94 0 1.67.235 2.19.705.45.41.675.935.675 1.575Zm13.061-2.115h1.14v1.11c.6-.85 1.39-1.275 2.37-1.275.95 0 1.64.38 2.07 1.14.37-.43.725-.725 1.065-.885.35-.17.78-.255 1.29-.255 1.5 0 2.25.705 2.25 2.115V257h-1.23v-5.28c0-1.02-.48-1.53-1.44-1.53-.5 0-.925.195-1.275.585-.35.39-.525.855-.525 1.395V257h-1.23v-5.28c0-1.02-.475-1.53-1.425-1.53-.51 0-.945.195-1.305.585-.35.38-.525.845-.525 1.395V257h-1.23v-7.71Zm15.29-.165c1.16 0 2.045.405 2.655 1.215.54.7.81 1.65.81 2.85 0 1.34-.35 2.36-1.05 3.06-.6.61-1.41.915-2.43.915-1.18 0-2.08-.395-2.7-1.185-.54-.69-.81-1.62-.81-2.79 0-1.36.355-2.405 1.065-3.135.61-.62 1.43-.93 2.46-.93Zm0 1.125c-.7 0-1.25.265-1.65.795-.4.52-.6 1.235-.6 2.145 0 .95.225 1.675.675 2.175.39.44.91.66 1.56.66.69 0 1.225-.25 1.605-.75.39-.5.585-1.195.585-2.085 0-.98-.22-1.73-.66-2.25-.38-.46-.885-.69-1.515-.69Zm11.444-3.99V257h-1.23v-1.065c-.49.83-1.25 1.245-2.28 1.245-1.13 0-2-.41-2.61-1.23-.53-.72-.795-1.67-.795-2.85 0-1.29.345-2.3 1.035-3.03.59-.63 1.355-.945 2.295-.945 1.04 0 1.825.39 2.355 1.17v-4.035h1.23Zm-3.375 4.005c-.68 0-1.23.27-1.65.81-.41.53-.615 1.235-.615 2.115 0 .91.24 1.625.72 2.145.41.46.93.69 1.56.69.65 0 1.165-.255 1.545-.765.39-.51.585-1.2.585-2.07 0-.95-.22-1.69-.66-2.22-.39-.47-.885-.705-1.485-.705ZM13.69 388.86h.76v.74c.4-.567.9267-.85 1.58-.85.6333 0 1.0933.253 1.38.76.2467-.287.4833-.483.71-.59.2333-.113.52-.17.86-.17 1 0 1.5.47 1.5 1.41V394h-.82v-3.52c0-.68-.32-1.02-.96-1.02-.3333 0-.6167.13-.85.39-.2333.26-.35.57-.35.93V394h-.82v-3.52c0-.68-.3167-1.02-.95-1.02-.34 0-.63.13-.87.39-.2333.253-.35.563-.35.93V394h-.82v-5.14Zm8.9536 0V394h-.81v-5.14h.81Zm-.39-2.01c.14 0 .2567.05.35.15.1.093.15.207.15.34 0 .14-.05.26-.15.36-.0933.093-.21.14-.35.14-.1333 0-.25-.047-.35-.14-.0933-.1-.14-.22-.14-.36 0-.133.0467-.247.14-.34.1-.1.2167-.15.35-.15Zm1.7977 2.01h.76v.87c.4134-.653.98-.98 1.7-.98.5 0 .8967.127 1.19.38.2934.247.44.58.44 1V394h-.81v-3.54c0-.307-.0966-.55-.29-.73-.1866-.18-.4433-.27-.77-.27-.4266 0-.7666.157-1.02.47-.2533.313-.38.73-.38 1.25V394h-.82v-5.14Z"/><path fill="#2F2A30" d="M0 422h282v187H0z"/><path fill="#6E70A3" d="M12 573h178v2H12zm0-10h178v2H12zm0-10h178v2H12zm0-11h178v2H12zm0-10h178v2H12zm0-10h178v2H12zm0-10h178v2H12zm0-10h178v2H12zm0-10h178v2H12zm0-10h178v2H12zm0-10h178v2H12z"/><path fill="#221D03" d="M30 452h22v145H30zm40 0h22v145H70V452Zm40 0h22v145h-22zm40 0h22v145h-22z"/><path fill="#6E70A3" d="M12.69 465.86h.76v.74c.4-.567.9267-.85 1.58-.85.6333 0 1.0933.253 1.38.76.2467-.287.4833-.483.71-.59.2333-.113.52-.17.86-.17 1 0 1.5.47 1.5 1.41V471h-.82v-3.52c0-.68-.32-1.02-.96-1.02-.3333 0-.6167.13-.85.39-.2333.26-.35.57-.35.93V471h-.82v-3.52c0-.68-.3167-1.02-.95-1.02-.34 0-.63.13-.87.39-.2333.253-.35.563-.35.93V471h-.82v-5.14Zm12.7436 4.45v.66c-.2267.08-.4033.12-.53.12-.5333 0-.8233-.243-.87-.73-.3667.5-.95.75-1.75.75-.5533 0-.9833-.153-1.29-.46-.2667-.267-.4-.61-.4-1.03 0-.48.17-.85.51-1.11.1933-.147.5967-.29 1.21-.43l1.68-.38.01-.43c0-.513-.3867-.77-1.16-.77-.74 0-1.1367.3-1.19.9h-.83c.02-.453.1333-.8.34-1.04.3533-.407.9267-.61 1.72-.61 1.2867 0 1.93.467 1.93 1.4v2.87c0 .253.11.38.33.38.0267 0 .0967-.02.21-.06.04-.013.0667-.023.08-.03Zm-1.43-1.94-1.32.34c-.4733.12-.8.243-.98.37-.1733.127-.26.303-.26.53 0 .527.34.79 1.02.79.48 0 .8867-.157 1.22-.47.2133-.193.32-.413.32-.66v-.9Zm4.509-.03 1.78 2.66h-.95l-1.29-1.98-1.31 1.98h-.93l1.82-2.62-1.73-2.52h.94l1.24 1.86 1.24-1.86h.92l-1.73 2.48Zm77.5224-30.05h1.14v1.11c.6-.85 1.39-1.275 2.37-1.275.95 0 1.64.38 2.07 1.14.37-.43.725-.725 1.065-.885.35-.17.78-.255 1.29-.255 1.5 0 2.25.705 2.25 2.115V446h-1.23v-5.28c0-1.02-.48-1.53-1.44-1.53-.5 0-.925.195-1.275.585-.35.39-.525.855-.525 1.395V446h-1.23v-5.28c0-1.02-.475-1.53-1.425-1.53-.51 0-.945.195-1.305.585-.35.38-.525.845-.525 1.395V446h-1.23v-7.71Zm13.43 0V446h-1.215v-7.71h1.215Zm-.585-3.015c.21 0 .385.075.525.225.15.14.225.31.225.51 0 .21-.075.39-.225.54-.14.14-.315.21-.525.21-.2 0-.375-.07-.525-.21-.14-.15-.21-.33-.21-.54 0-.2.07-.37.21-.51.15-.15.325-.225.525-.225Zm8.967-.015V446h-1.23v-1.065c-.49.83-1.25 1.245-2.28 1.245-1.13 0-2-.41-2.61-1.23-.53-.72-.795-1.67-.795-2.85 0-1.29.345-2.3 1.035-3.03.59-.63 1.355-.945 2.295-.945 1.04 0 1.825.39 2.355 1.17v-4.035h1.23Zm-3.375 4.005c-.68 0-1.23.27-1.65.81-.41.53-.615 1.235-.615 2.115 0 .91.24 1.625.72 2.145.41.46.93.69 1.56.69.65 0 1.165-.255 1.545-.765.39-.51.585-1.2.585-2.07 0-.95-.22-1.69-.66-2.22-.39-.47-.885-.705-1.485-.705Zm11.188 1.605h-1.23c-.15-1.08-.76-1.62-1.83-1.62-.67 0-1.195.265-1.575.795-.38.53-.57 1.265-.57 2.205 0 .93.225 1.64.675 2.13.38.43.89.645 1.53.645 1.03 0 1.645-.56 1.845-1.68h1.245c-.08.96-.425 1.685-1.035 2.175-.53.43-1.225.645-2.085.645-1.13 0-2.01-.4-2.64-1.2-.54-.69-.81-1.595-.81-2.715 0-1.34.355-2.39 1.065-3.15.61-.65 1.4-.975 2.37-.975 1.12 0 1.96.375 2.52 1.125.29.39.465.93.525 1.62Zm-58.865-2.58v.99H75.52V446h-1.215v-6.72H73.27v-.99h1.035v-1.32c0-.55.155-.98.465-1.29.32-.31.765-.465 1.335-.465.22 0 .45.025.69.075v1.02h-.135c-.11-.01-.205-.015-.285-.015-.57 0-.855.26-.855.78v1.215h1.275Zm1.1016-3.03h1.215v4.065c.57-.8 1.37-1.2 2.4-1.2 1.09 0 1.93.4 2.52 1.2.52.7.78 1.625.78 2.775 0 1.33-.345 2.365-1.035 3.105-.6.64-1.375.96-2.325.96-1.07 0-1.885-.405-2.445-1.215V446h-1.11v-10.74Zm3.39 4.005c-.66 0-1.19.27-1.59.81-.39.53-.585 1.235-.585 2.115 0 .92.225 1.64.675 2.16.39.44.89.66 1.5.66.68 0 1.22-.255 1.62-.765.41-.51.615-1.195.615-2.055 0-.94-.23-1.68-.69-2.22-.4-.47-.915-.705-1.545-.705Zm6.2384-4.005V446h-1.23v-10.74h1.23Zm-52.65 9.705v.99c-.34.12-.605.18-.795.18-.8 0-1.235-.365-1.305-1.095-.55.75-1.425 1.125-2.625 1.125-.83 0-1.475-.23-1.935-.69-.4-.4-.6-.915-.6-1.545 0-.72.255-1.275.765-1.665.29-.22.895-.435 1.815-.645l2.52-.57.015-.645c0-.77-.58-1.155-1.74-1.155-1.11 0-1.705.45-1.785 1.35H27.96c.03-.68.2-1.2.51-1.56.53-.61 1.39-.915 2.58-.915 1.93 0 2.895.7 2.895 2.1v4.305c0 .38.165.57.495.57.04 0 .145-.03.315-.09.06-.02.1-.035.12-.045Zm-2.145-2.91-1.98.51c-.71.18-1.2.365-1.47.555-.26.19-.39.455-.39.795 0 .79.51 1.185 1.53 1.185.72 0 1.33-.235 1.83-.705.32-.29.48-.62.48-.99v-1.35Zm4.6935-6.795V446h-1.23v-10.74h1.23Zm7.0916 3.03h1.14v6.45c0 1.67-.27 2.83-.81 3.48-.54.66-1.425.99-2.655.99-.96 0-1.71-.23-2.25-.69-.48-.41-.75-.955-.81-1.635h1.26c.06.4.21.695.45.885.35.27.82.405 1.41.405.8 0 1.37-.24 1.71-.72.29-.41.435-1.11.435-2.1v-.495c-.64.87-1.41 1.305-2.31 1.305-.88 0-1.625-.33-2.235-.99-.65-.71-.975-1.68-.975-2.91 0-1.32.34-2.37 1.02-3.15.6-.66 1.355-.99 2.265-.99.98 0 1.765.44 2.355 1.32v-1.155Zm-2.22.96c-.66 0-1.185.265-1.575.795-.38.52-.57 1.235-.57 2.145 0 .95.22 1.675.66 2.175.37.44.87.66 1.5.66.66 0 1.17-.25 1.53-.75.37-.5.555-1.195.555-2.085 0-.98-.21-1.73-.63-2.25-.37-.46-.86-.69-1.47-.69Zm8.3985-1.125c1.16 0 2.045.405 2.655 1.215.54.7.81 1.65.81 2.85 0 1.34-.35 2.36-1.05 3.06-.6.61-1.41.915-2.43.915-1.18 0-2.08-.395-2.7-1.185-.54-.69-.81-1.62-.81-2.79 0-1.36.355-2.405 1.065-3.135.61-.62 1.43-.93 2.46-.93Zm0 1.125c-.7 0-1.25.265-1.65.795-.4.52-.6 1.235-.6 2.145 0 .95.225 1.675.675 2.175.39.44.91.66 1.56.66.69 0 1.225-.25 1.605-.75.39-.5.585-1.195.585-2.085 0-.98-.22-1.73-.66-2.25-.38-.46-.885-.69-1.515-.69Zm96.1014 9.96v-10.92h1.14v1.185c.57-.9 1.39-1.35 2.46-1.35 1.09 0 1.93.42 2.52 1.26.52.73.78 1.69.78 2.88 0 1.27-.34 2.26-1.02 2.97-.59.62-1.355.93-2.295.93-.95 0-1.735-.345-2.355-1.035v4.08h-1.23Zm3.39-9.945c-.65 0-1.175.265-1.575.795-.39.53-.585 1.24-.585 2.13 0 .92.225 1.64.675 2.16.38.44.875.66 1.485.66.68 0 1.22-.255 1.62-.765.41-.52.615-1.205.615-2.055 0-.94-.23-1.68-.69-2.22-.41-.47-.925-.705-1.545-.705Zm8.053-1.14c1.16 0 2.045.405 2.655 1.215.54.7.81 1.65.81 2.85 0 1.34-.35 2.36-1.05 3.06-.6.61-1.41.915-2.43.915-1.18 0-2.08-.395-2.7-1.185-.54-.69-.81-1.62-.81-2.79 0-1.36.355-2.405 1.065-3.135.61-.62 1.43-.93 2.46-.93Zm0 1.125c-.7 0-1.25.265-1.65.795-.4.52-.6 1.235-.6 2.145 0 .95.225 1.675.675 2.175.39.44.91.66 1.56.66.69 0 1.225-.25 1.605-.75.39-.5.585-1.195.585-2.085 0-.98-.22-1.73-.66-2.25-.38-.46-.885-.69-1.515-.69Zm5.159-.96h1.14v1.41c.45-1.06 1.16-1.59 2.13-1.59.12 0 .265.015.435.045v1.26c-.8.01-1.35.125-1.65.345-.55.4-.825 1.145-.825 2.235V446h-1.23v-7.71Zm7.937 0v.99h-1.575v5.13c0 .18.06.335.18.465.13.12.295.18.495.18.19 0 .48-.045.87-.135l.135 1.08c-.62.11-1.09.165-1.41.165-.99 0-1.485-.405-1.485-1.215v-5.67h-1.05v-.99h1.05v-1.575l1.215-.555v2.13h1.575Zm8.278 6.675v.99c-.34.12-.605.18-.795.18-.8 0-1.235-.365-1.305-1.095-.55.75-1.425 1.125-2.625 1.125-.83 0-1.475-.23-1.935-.69-.4-.4-.6-.915-.6-1.545 0-.72.255-1.275.765-1.665.29-.22.895-.435 1.815-.645l2.52-.57.015-.645c0-.77-.58-1.155-1.74-1.155-1.11 0-1.705.45-1.785 1.35h-1.245c.03-.68.2-1.2.51-1.56.53-.61 1.39-.915 2.58-.915 1.93 0 2.895.7 2.895 2.1v4.305c0 .38.165.57.495.57.04 0 .145-.03.315-.09.06-.02.1-.035.12-.045Zm-2.145-2.91-1.98.51c-.71.18-1.2.365-1.47.555-.26.19-.39.455-.39.795 0 .79.51 1.185 1.53 1.185.72 0 1.33-.235 1.83-.705.32-.29.48-.62.48-.99v-1.35Zm3.494-3.765h1.14v1.11c.6-.85 1.39-1.275 2.37-1.275.95 0 1.64.38 2.07 1.14.37-.43.725-.725 1.065-.885.35-.17.78-.255 1.29-.255 1.5 0 2.25.705 2.25 2.115V446h-1.23v-5.28c0-1.02-.48-1.53-1.44-1.53-.5 0-.925.195-1.275.585-.35.39-.525.855-.525 1.395V446h-1.23v-5.28c0-1.02-.475-1.53-1.425-1.53-.51 0-.945.195-1.305.585-.35.38-.525.845-.525 1.395V446h-1.23v-7.71Zm18.785 4.215h-5.685c.01.66.15 1.185.42 1.575.43.63 1.05.945 1.86.945 1 0 1.675-.475 2.025-1.425h1.23c-.16.81-.53 1.44-1.11 1.89-.58.45-1.31.675-2.19.675-1.17 0-2.065-.4-2.685-1.2-.55-.7-.825-1.625-.825-2.775 0-1.33.36-2.365 1.08-3.105.63-.64 1.445-.96 2.445-.96.73 0 1.37.175 1.92.525.56.35.96.83 1.2 1.44.21.52.315 1.31.315 2.37v.045Zm-1.32-1.005c0-.67-.2-1.21-.6-1.62-.39-.42-.895-.63-1.515-.63-.63 0-1.145.205-1.545.615-.39.4-.61.945-.66 1.635h4.32Zm2.999-3.21h1.14v1.305c.62-.98 1.47-1.47 2.55-1.47.75 0 1.345.19 1.785.57.44.37.66.87.66 1.5V446h-1.215v-5.31c0-.46-.145-.825-.435-1.095-.28-.27-.665-.405-1.155-.405-.64 0-1.15.235-1.53.705-.38.47-.57 1.095-.57 1.875V446h-1.23v-7.71Zm11.203 0v.99h-1.575v5.13c0 .18.06.335.18.465.13.12.295.18.495.18.19 0 .48-.045.87-.135l.135 1.08c-.62.11-1.09.165-1.41.165-.99 0-1.485-.405-1.485-1.215v-5.67h-1.05v-.99h1.05v-1.575l1.215-.555v2.13h1.575Zm4.453-.165c1.16 0 2.045.405 2.655 1.215.54.7.81 1.65.81 2.85 0 1.34-.35 2.36-1.05 3.06-.6.61-1.41.915-2.43.915-1.18 0-2.08-.395-2.7-1.185-.54-.69-.81-1.62-.81-2.79 0-1.36.355-2.405 1.065-3.135.61-.62 1.43-.93 2.46-.93Zm0 1.125c-.7 0-1.25.265-1.65.795-.4.52-.6 1.235-.6 2.145 0 .95.225 1.675.675 2.175.39.44.91.66 1.56.66.69 0 1.225-.25 1.605-.75.39-.5.585-1.195.585-2.085 0-.98-.22-1.73-.66-2.25-.38-.46-.885-.69-1.515-.69Zm13.954-.96h1.14v1.11c.6-.85 1.39-1.275 2.37-1.275.95 0 1.64.38 2.07 1.14.37-.43.725-.725 1.065-.885.35-.17.78-.255 1.29-.255 1.5 0 2.25.705 2.25 2.115V446h-1.23v-5.28c0-1.02-.48-1.53-1.44-1.53-.5 0-.925.195-1.275.585-.35.39-.525.855-.525 1.395V446h-1.23v-5.28c0-1.02-.475-1.53-1.425-1.53-.51 0-.945.195-1.305.585-.35.38-.525.845-.525 1.395V446h-1.23v-7.71Zm15.29-.165c1.16 0 2.045.405 2.655 1.215.54.7.81 1.65.81 2.85 0 1.34-.35 2.36-1.05 3.06-.6.61-1.41.915-2.43.915-1.18 0-2.08-.395-2.7-1.185-.54-.69-.81-1.62-.81-2.79 0-1.36.355-2.405 1.065-3.135.61-.62 1.43-.93 2.46-.93Zm0 1.125c-.7 0-1.25.265-1.65.795-.4.52-.6 1.235-.6 2.145 0 .95.225 1.675.675 2.175.39.44.91.66 1.56.66.69 0 1.225-.25 1.605-.75.39-.5.585-1.195.585-2.085 0-.98-.22-1.73-.66-2.25-.38-.46-.885-.69-1.515-.69Zm5.174-.96h1.14v1.305c.62-.98 1.47-1.47 2.55-1.47.75 0 1.345.19 1.785.57.44.37.66.87.66 1.5V446h-1.215v-5.31c0-.46-.145-.825-.435-1.095-.28-.27-.665-.405-1.155-.405-.64 0-1.15.235-1.53.705-.38.47-.57 1.095-.57 1.875V446h-1.23v-7.71Zm11.203-.165c1.16 0 2.045.405 2.655 1.215.54.7.81 1.65.81 2.85 0 1.34-.35 2.36-1.05 3.06-.6.61-1.41.915-2.43.915-1.18 0-2.08-.395-2.7-1.185-.54-.69-.81-1.62-.81-2.79 0-1.36.355-2.405 1.065-3.135.61-.62 1.43-.93 2.46-.93Zm0 1.125c-.7 0-1.25.265-1.65.795-.4.52-.6 1.235-.6 2.145 0 .95.225 1.675.675 2.175.39.44.91.66 1.56.66.69 0 1.225-.25 1.605-.75.39-.5.585-1.195.585-2.085 0-.98-.22-1.73-.66-2.25-.38-.46-.885-.69-1.515-.69Zm-71.907 91.96v-10.92h1.14v1.185c.57-.9 1.39-1.35 2.46-1.35 1.09 0 1.93.42 2.52 1.26.52.73.78 1.69.78 2.88 0 1.27-.34 2.26-1.02 2.97-.59.62-1.355.93-2.295.93-.95 0-1.735-.345-2.355-1.035v4.08h-1.23Zm3.39-9.945c-.65 0-1.175.265-1.575.795-.39.53-.585 1.24-.585 2.13 0 .92.225 1.64.675 2.16.38.44.875.66 1.485.66.68 0 1.22-.255 1.62-.765.41-.52.615-1.205.615-2.055 0-.94-.23-1.68-.69-2.22-.41-.47-.925-.705-1.545-.705Zm7.798-.975v.99h-1.275V528h-1.215v-6.72h-1.035v-.99h1.035v-1.32c0-.55.155-.98.465-1.29.32-.31.765-.465 1.335-.465.22 0 .45.025.69.075v1.02h-.135c-.11-.01-.205-.015-.285-.015-.57 0-.855.26-.855.78v1.215h1.275Zm8.467 7.71h-1.395l-1.575-6.06-1.485 6.06h-1.38l-2.235-7.71h1.35l1.59 6 1.47-6h1.5l1.515 6 1.53-6h1.38L210.45 528Zm26.06-5.595h-1.35c-.04-.77-.555-1.155-1.545-1.155-.51 0-.915.1-1.215.3-.29.19-.435.45-.435.78 0 .5.475.86 1.425 1.08l1.185.27c.77.18 1.325.435 1.665.765.34.33.51.78.51 1.35 0 .73-.285 1.31-.855 1.74-.57.42-1.34.63-2.31.63-1.06 0-1.865-.25-2.415-.75-.46-.41-.705-.955-.735-1.635h1.395c.08.35.19.605.33.765.27.32.775.48 1.515.48.55 0 .985-.1 1.305-.3.33-.21.495-.485.495-.825 0-.51-.395-.86-1.185-1.05l-1.155-.27c-.88-.21-1.495-.46-1.845-.75-.4-.33-.6-.805-.6-1.425 0-.7.265-1.255.795-1.665.54-.41 1.26-.615 2.16-.615.94 0 1.67.235 2.19.705.45.41.675.935.675 1.575Zm4.653-2.115v.99h-1.275V528h-1.215v-6.72h-1.035v-.99h1.035v-1.32c0-.55.155-.98.465-1.29.32-.31.765-.465 1.335-.465.22 0 .45.025.69.075v1.02h-.135c-.11-.01-.205-.015-.285-.015-.57 0-.855.26-.855.78v1.215h1.275Zm8.467 7.71h-1.395l-1.575-6.06-1.485 6.06h-1.38l-2.235-7.71h1.35l1.59 6 1.47-6h1.5l1.515 6 1.53-6h1.38L249.63 528ZM13.69 577.86h.76v.74c.4-.567.9267-.85 1.58-.85.6333 0 1.0933.253 1.38.76.2467-.287.4833-.483.71-.59.2333-.113.52-.17.86-.17 1 0 1.5.47 1.5 1.41V583h-.82v-3.52c0-.68-.32-1.02-.96-1.02-.3333 0-.6167.13-.85.39-.2333.26-.35.57-.35.93V583h-.82v-3.52c0-.68-.3167-1.02-.95-1.02-.34 0-.63.13-.87.39-.2333.253-.35.563-.35.93V583h-.82v-5.14Zm8.9536 0V583h-.81v-5.14h.81Zm-.39-2.01c.14 0 .2567.05.35.15.1.093.15.207.15.34 0 .14-.05.26-.15.36-.0933.093-.21.14-.35.14-.1333 0-.25-.047-.35-.14-.0933-.1-.14-.22-.14-.36 0-.133.0467-.247.14-.34.1-.1.2167-.15.35-.15Zm1.7977 2.01h.76v.87c.4134-.653.98-.98 1.7-.98.5 0 .8967.127 1.19.38.2934.247.44.58.44 1V583h-.81v-3.54c0-.307-.0966-.55-.29-.73-.1866-.18-.4433-.27-.77-.27-.4266 0-.7666.157-1.02.47-.2533.313-.38.73-.38 1.25V583h-.82v-5.14Z"/><path fill="#2F2A30" d="M0 44h282v187H0z"/><path fill="#6E70A3" d="M132 194h98v2h-98zm0-10h98v2h-98zm0-10h98v2h-98zm0-11h98v2h-98zm0-10h98v2h-98zm0-10h98v2h-98zm0-10h98v2h-98zm0-10h98v2h-98zm0-10h98v2h-98zm0-10h98v2h-98zm0-10h98v2h-98zM30 126h39.8095v2H30zm0 34h40v2H30zm0 34h40v2H30zm0-101h40v2H30z"/><path fill="#221D03" d="M150 73h22v145h-22zM30 73h22v145H30zm160 0h22v145h-22V73Z"/><path fill="#6E70A3" d="M230 133h40v2h-40zm0-20h40v2h-40zm32.7-6.25c.773 0 1.363.27 1.77.81.36.467.54 1.1.54 1.9 0 .893-.233 1.573-.7 2.04-.4.407-.94.61-1.62.61-.787 0-1.387-.263-1.8-.79-.36-.46-.54-1.08-.54-1.86 0-.907.237-1.603.71-2.09.407-.413.953-.62 1.64-.62Zm0 .75c-.467 0-.833.177-1.1.53-.267.347-.4.823-.4 1.43 0 .633.15 1.117.45 1.45.26.293.607.44 1.04.44.46 0 .817-.167 1.07-.5.26-.333.39-.797.39-1.39 0-.653-.147-1.153-.44-1.5-.253-.307-.59-.46-1.01-.46Zm3.449-.64h.76v.87c.413-.653.98-.98 1.7-.98.5 0 .897.127 1.19.38.293.247.44.58.44 1V112h-.81v-3.54c0-.307-.097-.55-.29-.73-.187-.18-.443-.27-.77-.27-.427 0-.767.157-1.02.47-.253.313-.38.73-.38 1.25V112h-.82v-5.14Zm-3.449 19.89c.773 0 1.363.27 1.77.81.36.467.54 1.1.54 1.9 0 .893-.233 1.573-.7 2.04-.4.407-.94.61-1.62.61-.787 0-1.387-.263-1.8-.79-.36-.46-.54-1.08-.54-1.86 0-.907.237-1.603.71-2.09.407-.413.953-.62 1.64-.62Zm0 .75c-.467 0-.833.177-1.1.53-.267.347-.4.823-.4 1.43 0 .633.15 1.117.45 1.45.26.293.607.44 1.04.44.46 0 .817-.167 1.07-.5.26-.333.39-.797.39-1.39 0-.653-.147-1.153-.44-1.5-.253-.307-.59-.46-1.01-.46Zm5.289-.64v.66h-.85V132h-.81v-4.48h-.69v-.66h.69v-.88c0-.367.103-.653.31-.86.213-.207.51-.31.89-.31.147 0 .3.017.46.05v.68h-.09c-.073-.007-.137-.01-.19-.01-.38 0-.57.173-.57.52v.81h.85Zm2.734 0v.66h-.85V132h-.81v-4.48h-.69v-.66h.69v-.88c0-.367.104-.653.31-.86.214-.207.51-.31.89-.31.147 0 .3.017.46.05v.68h-.09c-.073-.007-.136-.01-.19-.01-.38 0-.57.173-.57.52v.81h.85Z"/><path fill="#221D03" d="M230 92h22v64h-22z"/><path fill="#6E70A3" d="M190 492.359h40v1.96875h-40zm0-19.687h40v1.96875h-40z"/><path fill="#221D03" d="M190 452h22v63h-22z"/><path fill="#6E70A3" d="M230 492.359h40v1.96875h-40zm0-19.687h40v1.96875h-40zm32.7-6.094c.773 0 1.363.27 1.77.81.36.467.54 1.1.54 1.9 0 .893-.233 1.573-.7 2.04-.4.407-.94.61-1.62.61-.787 0-1.387-.263-1.8-.79-.36-.46-.54-1.08-.54-1.86 0-.907.237-1.603.71-2.09.407-.413.953-.62 1.64-.62Zm0 .75c-.467 0-.833.177-1.1.53-.267.347-.4.823-.4 1.43 0 .633.15 1.117.45 1.45.26.293.607.44 1.04.44.46 0 .817-.167 1.07-.5.26-.333.39-.797.39-1.39 0-.653-.147-1.153-.44-1.5-.253-.307-.59-.46-1.01-.46Zm3.449-.64h.76v.87c.413-.653.98-.98 1.7-.98.5 0 .897.127 1.19.38.293.247.44.58.44 1v3.87h-.81v-3.54c0-.307-.097-.55-.29-.73-.187-.18-.443-.27-.77-.27-.427 0-.767.157-1.02.47-.253.313-.38.73-.38 1.25v2.82h-.82v-5.14Zm-3.449 19.578c.773 0 1.363.27 1.77.81.36.466.54 1.1.54 1.9 0 .893-.233 1.573-.7 2.04-.4.406-.94.61-1.62.61-.787 0-1.387-.264-1.8-.79-.36-.46-.54-1.08-.54-1.86 0-.907.237-1.604.71-2.09.407-.414.953-.62 1.64-.62Zm0 .75c-.467 0-.833.176-1.1.53-.267.346-.4.823-.4 1.43 0 .633.15 1.116.45 1.45.26.293.607.44 1.04.44.46 0 .817-.167 1.07-.5.26-.334.39-.797.39-1.39 0-.654-.147-1.154-.44-1.5-.253-.307-.59-.46-1.01-.46Zm5.289-.64v.66h-.85v4.48h-.81v-4.48h-.69v-.66h.69v-.88c0-.367.103-.654.31-.86.213-.207.51-.31.89-.31.147 0 .3.016.46.05v.68h-.09c-.073-.007-.137-.01-.19-.01-.38 0-.57.173-.57.52v.81h.85Zm2.734 0v.66h-.85v4.48h-.81v-4.48h-.69v-.66h.69v-.88c0-.367.104-.654.31-.86.214-.207.51-.31.89-.31.147 0 .3.016.46.05v.68h-.09c-.073-.007-.136-.01-.19-.01-.38 0-.57.173-.57.52v.81h.85Z"/><path fill="#221D03" d="M230 452h22v63h-22z"/><path fill="#6E70A3" d="M190 573h40v2h-40zm0-20h40v2h-40z"/><path fill="#221D03" d="M190 532h22v64h-22z"/><path fill="#6E70A3" d="M230 573h40v2h-40zm0-20h40v2h-40zm32.7-6.25c.773 0 1.363.27 1.77.81.36.467.54 1.1.54 1.9 0 .893-.233 1.573-.7 2.04-.4.407-.94.61-1.62.61-.787 0-1.387-.263-1.8-.79-.36-.46-.54-1.08-.54-1.86 0-.907.237-1.603.71-2.09.407-.413.953-.62 1.64-.62Zm0 .75c-.467 0-.833.177-1.1.53-.267.347-.4.823-.4 1.43 0 .633.15 1.117.45 1.45.26.293.607.44 1.04.44.46 0 .817-.167 1.07-.5.26-.333.39-.797.39-1.39 0-.653-.147-1.153-.44-1.5-.253-.307-.59-.46-1.01-.46Zm3.449-.64h.76v.87c.413-.653.98-.98 1.7-.98.5 0 .897.127 1.19.38.293.247.44.58.44 1V552h-.81v-3.54c0-.307-.097-.55-.29-.73-.187-.18-.443-.27-.77-.27-.427 0-.767.157-1.02.47-.253.313-.38.73-.38 1.25V552h-.82v-5.14Zm-3.449 19.89c.773 0 1.363.27 1.77.81.36.467.54 1.1.54 1.9 0 .893-.233 1.573-.7 2.04-.4.407-.94.61-1.62.61-.787 0-1.387-.263-1.8-.79-.36-.46-.54-1.08-.54-1.86 0-.907.237-1.603.71-2.09.407-.413.953-.62 1.64-.62Zm0 .75c-.467 0-.833.177-1.1.53-.267.347-.4.823-.4 1.43 0 .633.15 1.117.45 1.45.26.293.607.44 1.04.44.46 0 .817-.167 1.07-.5.26-.333.39-.797.39-1.39 0-.653-.147-1.153-.44-1.5-.253-.307-.59-.46-1.01-.46Zm5.289-.64v.66h-.85V572h-.81v-4.48h-.69v-.66h.69v-.88c0-.367.103-.653.31-.86.213-.207.51-.31.89-.31.147 0 .3.017.46.05v.68h-.09c-.073-.007-.137-.01-.19-.01-.38 0-.57.173-.57.52v.81h.85Zm2.734 0v.66h-.85V572h-.81v-4.48h-.69v-.66h.69v-.88c0-.367.104-.653.31-.86.214-.207.51-.31.89-.31.147 0 .3.017.46.05v.68h-.09c-.073-.007-.136-.01-.19-.01-.38 0-.57.173-.57.52v.81h.85Z"/><path fill="#221D03" d="M230 532h22v64h-22z"/><path fill="#6E70A3" d="M132.69 86.86h.76v.74c.4-.5667.927-.85 1.58-.85.633 0 1.093.2533 1.38.76.247-.2867.483-.4833.71-.59.233-.1133.52-.17.86-.17 1 0 1.5.47 1.5 1.41V92h-.82v-3.52c0-.68-.32-1.02-.96-1.02-.333 0-.617.13-.85.39-.233.26-.35.57-.35.93V92h-.82v-3.52c0-.68-.317-1.02-.95-1.02-.34 0-.63.13-.87.39-.233.2533-.35.5633-.35.93V92h-.82v-5.14Zm12.744 4.45v.66c-.227.08-.404.12-.53.12-.534 0-.824-.2433-.87-.73-.367.5-.95.75-1.75.75-.554 0-.984-.1533-1.29-.46-.267-.2667-.4-.61-.4-1.03 0-.48.17-.85.51-1.11.193-.1467.596-.29 1.21-.43l1.68-.38.01-.43c0-.5133-.387-.77-1.16-.77-.74 0-1.137.3-1.19.9h-.83c.02-.4533.133-.8.34-1.04.353-.4067.926-.61 1.72-.61 1.286 0 1.93.4667 1.93 1.4v2.87c0 .2533.11.38.33.38.026 0 .096-.02.21-.06.04-.0133.066-.0233.08-.03Zm-1.43-1.94-1.32.34c-.474.12-.8.2433-.98.37-.174.1267-.26.3033-.26.53 0 .5267.34.79 1.02.79.48 0 .886-.1567 1.22-.47.213-.1933.32-.4133.32-.66v-.9Zm4.509-.03 1.78 2.66h-.95l-1.29-1.98-1.31 1.98h-.93l1.82-2.62-1.73-2.52h.94l1.24 1.86 1.24-1.86h.92l-1.73 2.48Zm42.792-33.08V67h-1.23v-1.065c-.49.83-1.25 1.245-2.28 1.245-1.13 0-2-.41-2.61-1.23-.53-.72-.795-1.67-.795-2.85 0-1.29.345-2.3 1.035-3.03.59-.63 1.355-.945 2.295-.945 1.04 0 1.825.39 2.355 1.17V56.26h1.23Zm-3.375 4.005c-.68 0-1.23.27-1.65.81-.41.53-.615 1.235-.615 2.115 0 .91.24 1.625.72 2.145.41.46.93.69 1.56.69.65 0 1.165-.255 1.545-.765.39-.51.585-1.2.585-2.07 0-.95-.22-1.69-.66-2.22-.39-.47-.885-.705-1.485-.705Zm11.803 3.24h-5.685c.01.66.15 1.185.42 1.575.43.63 1.05.945 1.86.945 1 0 1.675-.475 2.025-1.425h1.23c-.16.81-.53 1.44-1.11 1.89-.58.45-1.31.675-2.19.675-1.17 0-2.065-.4-2.685-1.2-.55-.7-.825-1.625-.825-2.775 0-1.33.36-2.365 1.08-3.105.63-.64 1.445-.96 2.445-.96.73 0 1.37.175 1.92.525.56.35.96.83 1.2 1.44.21.52.315 1.31.315 2.37v.045Zm-1.32-1.005c0-.67-.2-1.21-.6-1.62-.39-.42-.895-.63-1.515-.63-.63 0-1.145.205-1.545.615-.39.4-.61.945-.66 1.635h4.32Zm4.199-6.24V67h-1.23V56.26h1.23Zm8.907 9.705v.99c-.34.12-.605.18-.795.18-.8 0-1.235-.365-1.305-1.095-.55.75-1.425 1.125-2.625 1.125-.83 0-1.475-.23-1.935-.69-.4-.4-.6-.915-.6-1.545 0-.72.255-1.275.765-1.665.29-.22.895-.435 1.815-.645l2.52-.57.015-.645c0-.77-.58-1.155-1.74-1.155-1.11 0-1.705.45-1.785 1.35h-1.245c.03-.68.2-1.2.51-1.56.53-.61 1.39-.915 2.58-.915 1.93 0 2.895.7 2.895 2.1v4.305c0 .38.165.57.495.57.04 0 .145-.03.315-.09.06-.02.1-.035.12-.045Zm-2.145-2.91-1.98.51c-.71.18-1.2.365-1.47.555-.26.19-.39.455-.39.795 0 .79.51 1.185 1.53 1.185.72 0 1.33-.235 1.83-.705.32-.29.48-.62.48-.99v-1.35Zm8.188-3.765h1.32l-3.435 9.33c-.4 1.06-1.065 1.59-1.995 1.59-.44 0-.825-.1-1.155-.3l.24-1.065c.25.1.495.15.735.15.48 0 .815-.25 1.005-.75l.465-1.23-2.61-7.725h1.32l1.965 6 2.145-6Zm-68.542 0h1.14v1.41c.45-1.06 1.16-1.59 2.13-1.59.12 0 .265.015.435.045v1.26c-.8.01-1.35.125-1.65.345-.55.4-.825 1.145-.825 2.235V67h-1.23v-7.71Zm11.762 6.675v.99c-.34.12-.605.18-.795.18-.8 0-1.235-.365-1.305-1.095-.55.75-1.425 1.125-2.625 1.125-.83 0-1.475-.23-1.935-.69-.4-.4-.6-.915-.6-1.545 0-.72.255-1.275.765-1.665.29-.22.895-.435 1.815-.645l2.52-.57.015-.645c0-.77-.58-1.155-1.74-1.155-1.11 0-1.705.45-1.785 1.35h-1.245c.03-.68.2-1.2.51-1.56.53-.61 1.39-.915 2.58-.915 1.93 0 2.895.7 2.895 2.1v4.305c0 .38.165.57.495.57.04 0 .145-.03.315-.09.06-.02.1-.035.12-.045Zm-2.145-2.91-1.98.51c-.71.18-1.2.365-1.47.555-.26.19-.39.455-.39.795 0 .79.51 1.185 1.53 1.185.72 0 1.33-.235 1.83-.705.32-.29.48-.62.48-.99v-1.35Zm6.509-3.765v.99h-1.575v5.13c0 .18.06.335.18.465.13.12.295.18.495.18.19 0 .48-.045.87-.135l.135 1.08c-.62.11-1.09.165-1.41.165-.99 0-1.485-.405-1.485-1.215v-5.67h-1.05v-.99h1.05v-1.575l1.215-.555v2.13h1.575Zm7.948 4.215h-5.685c.01.66.15 1.185.42 1.575.43.63 1.05.945 1.86.945 1 0 1.675-.475 2.025-1.425h1.23c-.16.81-.53 1.44-1.11 1.89-.58.45-1.31.675-2.19.675-1.17 0-2.065-.4-2.685-1.2-.55-.7-.825-1.625-.825-2.775 0-1.33.36-2.365 1.08-3.105.63-.64 1.445-.96 2.445-.96.73 0 1.37.175 1.92.525.56.35.96.83 1.2 1.44.21.52.315 1.31.315 2.37v.045Zm-1.32-1.005c0-.67-.2-1.21-.6-1.62-.39-.42-.895-.63-1.515-.63-.63 0-1.145.205-1.545.615-.39.4-.61.945-.66 1.635h4.32ZM31.16 67h-1.395l-1.575-6.06L26.705 67h-1.38l-2.235-7.71h1.35l1.59 6 1.47-6H29l1.515 6 1.53-6h1.38L31.16 67Zm10.3498-1.035v.99c-.34.12-.605.18-.795.18-.8 0-1.235-.365-1.305-1.095-.55.75-1.425 1.125-2.625 1.125-.83 0-1.475-.23-1.935-.69-.4-.4-.6-.915-.6-1.545 0-.72.255-1.275.765-1.665.29-.22.895-.435 1.815-.645l2.52-.57.015-.645c0-.77-.58-1.155-1.74-1.155-1.11 0-1.705.45-1.785 1.35h-1.245c.03-.68.2-1.2.51-1.56.53-.61 1.39-.915 2.58-.915 1.93 0 2.895.7 2.895 2.1v4.305c0 .38.165.57.495.57.04 0 .145-.03.315-.09.06-.02.1-.035.12-.045Zm-2.145-2.91-1.98.51c-.71.18-1.2.365-1.47.555-.26.19-.39.455-.39.795 0 .79.51 1.185 1.53 1.185.72 0 1.33-.235 1.83-.705.32-.29.48-.62.48-.99v-1.35ZM46.0232 67h-1.335l-2.715-7.71h1.395l2.04 6.24 2.19-6.24h1.38L46.0232 67Zm10.7132-3.495h-5.685c.01.66.15 1.185.42 1.575.43.63 1.05.945 1.86.945 1 0 1.675-.475 2.025-1.425h1.23c-.16.81-.53 1.44-1.11 1.89-.58.45-1.31.675-2.19.675-1.17 0-2.065-.4-2.685-1.2-.55-.7-.825-1.625-.825-2.775 0-1.33.36-2.365 1.08-3.105.63-.64 1.445-.96 2.445-.96.73 0 1.37.175 1.92.525.56.35.96.83 1.2 1.44.21.52.315 1.31.315 2.37v.045Zm-1.32-1.005c0-.67-.2-1.21-.6-1.62-.39-.42-.895-.63-1.515-.63-.63 0-1.145.205-1.545.615-.39.4-.61.945-.66 1.635h4.32Z"/><path stroke="#6E70A3" stroke-linecap="round" stroke-linejoin="round" stroke-miterlimit="11.4737" stroke-width="2" d="m82 127 4.8927-10 5.0644 10 4.9785-10L102 127"/><path stroke="#6E70A3" stroke-linecap="square" stroke-miterlimit="11.4737" stroke-width="2" d="M82 161v-10h4.9362v10h5.0212v-10h5.0213v10H102v-10"/><path stroke="#6E70A3" stroke-linecap="round" stroke-linejoin="round" stroke-miterlimit="11.4737" stroke-width="2" d="m82 195 9.8276-10v10L102 185v10"/><path stroke="#6E70A3" stroke-linecap="square" stroke-miterlimit="11.4737" stroke-width="2" d="M82 94v-4.9091h4.9153V94h5V84h5v3.0909H102V84"/><path fill="#6E70A3" d="M227.55 57.26v9.525h5.295V68h-6.66V57.26h1.365Zm8.323 5.85V68h-1.365V57.26h7.2v1.215h-5.835v3.42h5.13v1.215h-5.13Zm12.055-6.015c1.66 0 2.97.575 3.93 1.725.83 1 1.245 2.27 1.245 3.81 0 1.77-.535 3.17-1.605 4.2-.94.89-2.13 1.335-3.57 1.335-1.67 0-2.985-.575-3.945-1.725-.83-1-1.245-2.27-1.245-3.81 0-1.77.54-3.17 1.62-4.2.93-.89 2.12-1.335 3.57-1.335Zm-.015 1.215c-1.22 0-2.185.445-2.895 1.335-.61.78-.915 1.775-.915 2.985 0 1.39.395 2.485 1.185 3.285.69.69 1.565 1.035 2.625 1.035 1.23 0 2.2-.445 2.91-1.335.61-.78.915-1.775.915-2.985 0-1.39-.395-2.485-1.185-3.285-.69-.69-1.57-1.035-2.64-1.035ZM231.51 79.405h-1.35c-.04-.77-.555-1.155-1.545-1.155-.51 0-.915.1-1.215.3-.29.19-.435.45-.435.78 0 .5.475.86 1.425 1.08l1.185.27c.77.18 1.325.435 1.665.765.34.33.51.78.51 1.35 0 .73-.285 1.31-.855 1.74-.57.42-1.34.63-2.31.63-1.06 0-1.865-.25-2.415-.75-.46-.41-.705-.955-.735-1.635h1.395c.08.35.19.605.33.765.27.32.775.48 1.515.48.55 0 .985-.1 1.305-.3.33-.21.495-.485.495-.825 0-.51-.395-.86-1.185-1.05l-1.155-.27c-.88-.21-1.495-.46-1.845-.75-.4-.33-.6-.805-.6-1.425 0-.7.265-1.255.795-1.665.54-.41 1.26-.615 2.16-.615.94 0 1.67.235 2.19.705.45.41.675.935.675 1.575Zm6.588-2.115h1.32l-3.435 9.33c-.4 1.06-1.065 1.59-1.995 1.59-.44 0-.825-.1-1.155-.3l.24-1.065c.25.1.495.15.735.15.48 0 .815-.25 1.005-.75l.465-1.23-2.61-7.725h1.32l1.965 6 2.145-6Zm2.673 0h1.14v1.305c.62-.98 1.47-1.47 2.55-1.47.75 0 1.345.19 1.785.57.44.37.66.87.66 1.5V85h-1.215v-5.31c0-.46-.145-.825-.435-1.095-.28-.27-.665-.405-1.155-.405-.64 0-1.15.235-1.53.705-.38.47-.57 1.095-.57 1.875V85h-1.23v-7.71Zm14.084 2.58h-1.23c-.15-1.08-.76-1.62-1.83-1.62-.67 0-1.195.265-1.575.795-.38.53-.57 1.265-.57 2.205 0 .93.225 1.64.675 2.13.38.43.89.645 1.53.645 1.03 0 1.645-.56 1.845-1.68h1.245c-.08.96-.425 1.685-1.035 2.175-.53.43-1.225.645-2.085.645-1.13 0-2.01-.4-2.64-1.2-.54-.69-.81-1.595-.81-2.715 0-1.34.355-2.39 1.065-3.15.61-.65 1.4-.975 2.37-.975 1.12 0 1.96.375 2.52 1.125.29.39.465.93.525 1.62ZM120 75h2v137h-2zM57.34 189.27h-.9c-.0267-.513-.37-.77-1.03-.77-.34 0-.61.067-.81.2-.1933.127-.29.3-.29.52 0 .333.3167.573.95.72l.79.18c.5133.12.8833.29 1.11.51.2267.22.34.52.34.9 0 .487-.19.873-.57 1.16-.38.28-.8933.42-1.54.42-.7067 0-1.2433-.167-1.61-.5-.3067-.273-.47-.637-.49-1.09h.93c.0533.233.1267.403.22.51.18.213.5167.32 1.01.32.3667 0 .6567-.067.87-.2.22-.14.33-.323.33-.55 0-.34-.2633-.573-.79-.7l-.77-.18c-.5867-.14-.9967-.307-1.23-.5-.2667-.22-.4-.537-.4-.95 0-.467.1767-.837.53-1.11.36-.273.84-.41 1.44-.41.6267 0 1.1133.157 1.46.47.3.273.45.623.45 1.05Zm5.8221 3.04v.66c-.2267.08-.4033.12-.53.12-.5333 0-.8233-.243-.87-.73-.3667.5-.95.75-1.75.75-.5533 0-.9833-.153-1.29-.46-.2667-.267-.4-.61-.4-1.03 0-.48.17-.85.51-1.11.1933-.147.5967-.29 1.21-.43l1.68-.38.01-.43c0-.513-.3867-.77-1.16-.77-.74 0-1.1367.3-1.19.9h-.83c.02-.453.1333-.8.34-1.04.3533-.407.9267-.61 1.72-.61 1.2867 0 1.93.467 1.93 1.4v2.87c0 .253.11.38.33.38.0267 0 .0967-.02.21-.06.04-.013.0667-.023.08-.03Zm-1.43-1.94-1.32.34c-.4733.12-.8.243-.98.37-.1733.127-.26.303-.26.53 0 .527.34.79 1.02.79.48 0 .8867-.157 1.22-.47.2133-.193.32-.413.32-.66v-.9Zm7.079 2.63h-.93l-1.05-4.04-.99 4.04h-.92l-1.49-5.14h.9l1.06 4 .98-4h1l1.01 4 1.02-4h.92l-1.51 5.14ZM64.34 155.27h-.9c-.0267-.513-.37-.77-1.03-.77-.34 0-.61.067-.81.2-.1933.127-.29.3-.29.52 0 .333.3167.573.95.72l.79.18c.5133.12.8833.29 1.11.51.2267.22.34.52.34.9 0 .487-.19.873-.57 1.16-.38.28-.8933.42-1.54.42-.7067 0-1.2433-.167-1.61-.5-.3067-.273-.47-.637-.49-1.09h.93c.0533.233.1267.403.22.51.18.213.5167.32 1.01.32.3667 0 .6567-.067.87-.2.22-.14.33-.323.33-.55 0-.34-.2633-.573-.79-.7l-.77-.18c-.5867-.14-.9967-.307-1.23-.5-.2667-.22-.4-.537-.4-.95 0-.467.1767-.837.53-1.11.36-.273.84-.41 1.44-.41.6267 0 1.1133.157 1.46.47.3.273.45.623.45 1.05Zm5.4421 5.87h-.82v-2.81c-.3667.52-.8933.78-1.58.78-.7333 0-1.3-.26-1.7-.78-.34-.46-.51-1.063-.51-1.81 0-.9.23-1.607.69-2.12.4-.44.9167-.66 1.55-.66.7 0 1.2467.277 1.64.83v-.71h.73v7.28Zm-2.26-6.63c-.4467 0-.81.18-1.09.54-.2733.353-.41.823-.41 1.41 0 .607.1567 1.083.47 1.43.2667.3.6133.45 1.04.45.4333 0 .78-.17 1.04-.51.26-.34.39-.797.39-1.37 0-.633-.1467-1.13-.44-1.49-.26-.307-.5933-.46-1-.46ZM64.7 119.86v.66h-1.05v3.42c0 .12.04.223.12.31.0867.08.1967.12.33.12.1267 0 .32-.03.58-.09l.09.72c-.4133.073-.7267.11-.94.11-.66 0-.99-.27-.99-.81v-3.78h-.7v-.66h.7v-1.05l.81-.37v1.42h1.05Zm.9488 0h.76v.94c.3-.707.7733-1.06 1.42-1.06.08 0 .1766.01.29.03v.84c-.5334.007-.9.083-1.1.23-.3667.267-.55.763-.55 1.49V125h-.82v-5.14Zm4.0514 0V125h-.81v-5.14h.81Zm-.39-2.01c.14 0 .2567.05.35.15.1.093.15.207.15.34 0 .14-.05.26-.15.36-.0933.093-.21.14-.35.14-.1333 0-.25-.047-.35-.14-.0933-.1-.14-.22-.14-.36 0-.133.0467-.247.14-.34.1-.1.2167-.15.35-.15ZM61.34 88.27h-.9c-.0267-.5133-.37-.77-1.03-.77-.34 0-.61.0667-.81.2-.1933.1267-.29.3-.29.52 0 .3333.3167.5733.95.72l.79.18c.5133.12.8833.29 1.11.51.2267.22.34.52.34.9 0 .4867-.19.8733-.57 1.16-.38.28-.8933.42-1.54.42-.7067 0-1.2433-.1667-1.61-.5-.3067-.2733-.47-.6367-.49-1.09h.93c.0533.2333.1267.4033.22.51.18.2133.5167.32 1.01.32.3667 0 .6567-.0667.87-.2.22-.14.33-.3233.33-.55 0-.34-.2633-.5733-.79-.7l-.77-.18c-.5867-.14-.9967-.3067-1.23-.5-.2667-.22-.4-.5367-.4-.95 0-.4667.1767-.8367.53-1.11.36-.2733.84-.41 1.44-.41.6267 0 1.1133.1567 1.46.47.3.2733.45.6233.45 1.05Zm3.9721-3-2.5 6.73h-.81l2.51-6.73h.8Zm.7861-.43h.81v2.74c.2467-.3067.4933-.52.74-.64.2467-.1267.5533-.19.92-.19.5 0 .8933.1267 1.18.38.2867.2467.43.5867.43 1.02V92h-.81v-3.52c0-.36-.11-.6233-.33-.79-.2067-.1533-.45-.23-.73-.23-.42 0-.76.1567-1.02.47-.2533.3133-.38.73-.38 1.25V92h-.81v-7.16ZM133.69 198.86h.76v.74c.4-.567.927-.85 1.58-.85.633 0 1.093.253 1.38.76.247-.287.483-.483.71-.59.233-.113.52-.17.86-.17 1 0 1.5.47 1.5 1.41V204h-.82v-3.52c0-.68-.32-1.02-.96-1.02-.333 0-.617.13-.85.39-.233.26-.35.57-.35.93V204h-.82v-3.52c0-.68-.317-1.02-.95-1.02-.34 0-.63.13-.87.39-.233.253-.35.563-.35.93V204h-.82v-5.14Zm8.954 0V204h-.81v-5.14h.81Zm-.39-2.01c.14 0 .256.05.35.15.1.093.15.207.15.34 0 .14-.05.26-.15.36-.094.093-.21.14-.35.14-.134 0-.25-.047-.35-.14-.094-.1-.14-.22-.14-.36 0-.133.046-.247.14-.34.1-.1.216-.15.35-.15Zm1.797 2.01h.76v.87c.414-.653.98-.98 1.7-.98.5 0 .897.127 1.19.38.294.247.44.58.44 1V204h-.81v-3.54c0-.307-.096-.55-.29-.73-.186-.18-.443-.27-.77-.27-.426 0-.766.157-1.02.47-.253.313-.38.73-.38 1.25V204h-.82v-5.14Z"/></svg>