<svg width="260" height="420" viewBox="0 0 260 420" fill="none" xmlns="http://www.w3.org/2000/svg">
<g id="op_params">
<rect id="overlay" width="260" height="420" fill="#FB0000" fill-opacity="0.4"/>

<g id="ampmod">
<rect id="Rectangle 35" x="208" y="303" width="22" height="42" fill="black"/>
<rect id="Rectangle 36" x="208" y="322" width="22" height="4" fill="#C2B9A8"/>
</g>

<g id="det">
<rect id="Rectangle 35_2" x="110" y="364" width="22" height="42" fill="black"/>
<rect id="Rectangle 36_2" x="110" y="383" width="22" height="4" fill="#C2B9A8"/>
</g>

<g id="freq">
<rect id="Rectangle 35_3" x="70" y="364" width="22" height="42" fill="black"/>
<rect id="Rectangle 36_3" x="70" y="383" width="22" height="4" fill="#FA9770"/>
</g>

<g id="out">
<rect id="Rectangle 35_4" x="30" y="364" width="22" height="42" fill="black"/>
<rect id="Rectangle 36_4" x="30" y="383" width="22" height="4" fill="#FA9770"/>
</g>

<g id="ksr">
<g id="encoder">
<circle id="Ellipse 1" cx="169" cy="285" r="11" transform="rotate(-134.5 169 285)" fill="black"/>
<circle id="Ellipse 4" cx="163.294" cy="290.607" r="2" transform="rotate(-134.5 163.294 290.607)" fill="#C2B9A8"/>
</g>
</g>

<g id="egb">
<g id="encoder_2">
<circle id="Ellipse 1_2" cx="220" cy="396" r="11" transform="rotate(-134.5 220 396)" fill="black"/>
<circle id="Ellipse 7" cx="214.294" cy="401.607" r="2" transform="rotate(-134.5 214.294 401.607)" fill="#13B5B8"/>
</g>
</g>

<g id="kv">
<g id="encoder_3">
<circle id="Ellipse 1_3" cx="178" cy="396" r="11" transform="rotate(-134.5 178 396)" fill="black"/>
<circle id="Ellipse 6" cx="172.294" cy="401.607" r="2" transform="rotate(-134.5 172.294 401.607)" fill="#FA9770"/>
</g>
</g>

<g id="ksl">
<g id="encoder_4">
<path id="Ellipse 1_4" d="M181.29 309.154C185.623 304.896 192.588 304.957 196.846 309.29C201.104 313.623 201.043 320.588 196.71 324.846C192.377 329.104 185.412 329.043 181.154 324.71C176.896 320.377 176.957 313.412 181.29 309.154Z" fill="black"/>
<circle id="Ellipse 5" cx="183.294" cy="322.607" r="2" transform="rotate(-134.5 183.294 322.607)" fill="#C2B9A8"/>
</g>
</g>

<g id="d1l">
<rect id="Rectangle 35_5" x="208" y="175" width="22" height="42" fill="black"/>
<rect id="Rectangle 36_5" x="208" y="194" width="22" height="4" fill="#C2B9A8"/>
</g>

<g id="rr">
<rect id="Rectangle 35_6" x="150" y="175" width="22" height="42" fill="black"/>
<rect id="Rectangle 36_6" x="150" y="194" width="22" height="4" fill="#13B5B8"/>
</g>

<g id="d2r">
<rect id="Rectangle 35_7" x="110" y="175" width="22" height="42" fill="black"/>
<rect id="Rectangle 36_7" x="110" y="194" width="22" height="4" fill="#13B5B8"/>
</g>

<g id="d1r">
<rect id="Rectangle 35_8" x="70" y="175" width="22" height="42" fill="black"/>
<rect id="Rectangle 36_8" x="70" y="194" width="22" height="4" fill="#13B5B8"/>
</g>

<g id="ar">
<rect id="Rectangle 35_9" x="30" y="175" width="22" height="42" fill="black"/>
<rect id="Rectangle 36_9" x="30" y="194" width="22" height="4" fill="#13B5B8"/>
</g>
</g>
</svg>
